<svg id="visual" viewBox="0 0 1920 1080" width="1920" height="1080" xmlns="http://www.w3.org/2000/svg" xmlns:xlink="http://www.w3.org/1999/xlink" version="1.1"><rect x="0" y="0" width="1920" height="1080" fill="#0a092d"></rect><defs><linearGradient id="grad1_0" x1="43.8%" y1="0%" x2="100%" y2="100%"><stop offset="14.444444444444446%" stop-color="#0a092d" stop-opacity="1"></stop><stop offset="85.55555555555554%" stop-color="#0a092d" stop-opacity="1"></stop></linearGradient></defs><defs><linearGradient id="grad2_0" x1="0%" y1="0%" x2="56.3%" y2="100%"><stop offset="14.444444444444446%" stop-color="#0a092d" stop-opacity="1"></stop><stop offset="85.55555555555554%" stop-color="#0a092d" stop-opacity="1"></stop></linearGradient></defs><g transform="translate(1920, 0)"><path d="M0 810C-114.4 808.9 -228.7 807.7 -310 748.3C-391.2 689 -439.4 571.3 -481.5 481.5C-523.7 391.7 -559.7 329.7 -613.5 254.1C-667.2 178.5 -738.6 89.2 -810 0L0 0Z" fill="#ffcd1f"></path></g><g transform="translate(0, 1080)"><path d="M0 -810C119.6 -803.5 239.2 -796.9 299.6 -723.4C360.1 -649.9 361.4 -509.4 439.8 -439.8C518.2 -370.2 673.8 -371.5 748.3 -310C822.9 -248.5 816.4 -124.2 810 0L0 0Z" fill="#ffcd1f"></path></g></svg>