<svg width="335" height="316" viewBox="0 0 335 316" fill="none" xmlns="http://www.w3.org/2000/svg">
<path d="M270.316 269.372H63.2864V63.1396H270.316V269.372Z" fill="#AAE0FF"/>
<path d="M1.82941 315.867H333.172C334.181 315.867 335 315.048 335 314.038C335 313.027 334.181 312.208 333.172 312.208H1.82941C0.819049 312.208 0 313.027 0 314.038C0 315.048 0.819049 315.867 1.82941 315.867Z" fill="#2D5B98"/>
<path d="M91.1152 297.712C80.8899 297.712 72.6006 289.423 72.6006 279.197V253.957H109.63V279.197C109.63 289.423 101.341 297.712 91.1152 297.712Z" fill="#5896FA"/>
<path d="M72.6003 312.208H70.5482V273.031H72.6003V312.208Z" fill="#0E0E0E"/>
<path d="M111.682 312.208H109.63V273.031H111.682V312.208Z" fill="#0E0E0E"/>
<path d="M95.9781 312.208H93.926V273.031H95.9781V312.208Z" fill="#0E0E0E"/>
<path d="M70.5482 299.765V297.713H109.725V299.765H70.5482Z" fill="#0E0E0E"/>
<path d="M119.95 212.258C122.185 215.477 117.687 218.251 116.986 222.713C116.286 227.173 121.396 229.684 115.976 235.524C112.638 239.122 109.821 234.344 107.108 239.857C104.394 245.371 106.532 246.301 103.483 248.284C98.1659 251.743 90.032 244.099 92.7676 238.591C95.5032 233.084 101.037 233.577 98.4766 229.045C95.9165 224.514 94.9641 222.562 99.3789 220.233C104.843 217.351 109.658 219.998 110.098 215.782C110.537 211.566 116.994 208.001 119.95 212.258Z" fill="#FFCA59"/>
<path d="M96.5929 253.704L95.6731 253.522C99.9812 231.747 114.264 216.499 114.407 216.348L115.087 216.993C114.945 217.143 100.847 232.204 96.5929 253.704Z" fill="#0E0E0E"/>
<path d="M48.3411 204.213C46.031 208.921 52.5411 211.688 54.365 217.451C56.1889 223.213 49.4726 225.249 57.8193 231.889C62.9601 235.98 64.036 233.423 65.926 242.571C67.5899 250.626 73.71 242.961 78.2866 247.689C84.1919 253.788 93.4195 240.401 88.692 233.663C83.9644 226.925 78.4474 228.667 80.924 222.156C83.4008 215.644 80.4468 210.739 74.1364 208.545C66.3259 205.83 63.5168 212.386 62.0872 206.895C60.6576 201.403 51.3964 197.985 48.3411 204.213Z" fill="#ED5A24"/>
<path d="M87.5852 254.362C77.6272 226.752 55.9463 209.672 55.7286 209.503L56.4988 208.51C56.7194 208.682 78.6857 225.987 88.7658 253.936L87.5852 254.362Z" fill="#0E0E0E"/>
<path d="M193.906 98.741C193.906 142.474 158.453 177.926 114.721 177.926C70.9874 177.926 35.5348 142.474 35.5348 98.741C35.5348 55.0079 70.9874 19.5553 114.721 19.5553C158.453 19.5553 193.906 55.0079 193.906 98.741Z" stroke="#2E77E6" stroke-width="8.731" stroke-miterlimit="10" stroke-dasharray="13.1 13.1"/>
<path d="M134.769 93.5429C134.853 92.9248 134.911 92.2989 134.911 91.658C134.911 83.9504 128.662 77.7021 120.955 77.7021C115.173 77.7021 110.212 81.2187 108.095 86.2297C106.372 84.6955 104.108 83.7554 101.619 83.7554C96.2328 83.7554 91.8666 88.1214 91.8666 93.5076H90.0467C84.8679 93.5076 80.6306 97.7447 80.6306 102.923V102.924C80.6306 108.102 84.8679 112.339 90.0467 112.339H134.074C139.253 112.339 143.491 108.102 143.491 102.924V102.923C143.491 97.9792 139.625 93.9028 134.769 93.5429Z" fill="white"/>
<path d="M143.429 195.972H84.4824C82.4986 195.972 80.8904 194.364 80.8904 192.38V142.926C80.8904 140.943 82.4986 139.335 84.4824 139.335H143.429C145.413 139.335 147.021 140.943 147.021 142.926V192.38C147.021 194.364 145.413 195.972 143.429 195.972Z" fill="#5896FA"/>
<path d="M133.977 173.533H94.1101C92.8056 173.533 91.7383 172.465 91.7383 171.161C91.7383 169.856 92.8056 168.789 94.1101 168.789H133.977C135.28 168.789 136.349 169.856 136.349 171.161C136.349 172.465 135.28 173.533 133.977 173.533Z" fill="white"/>
<path d="M133.977 181.172H94.1101C92.8056 181.172 91.7383 180.105 91.7383 178.8C91.7383 177.496 92.8056 176.428 94.1101 176.428H133.977C135.28 176.428 136.349 177.496 136.349 178.8C136.349 180.105 135.28 181.172 133.977 181.172Z" fill="white"/>
<path d="M101.554 179.011C101.554 179.471 101.18 179.845 100.719 179.845C100.258 179.845 99.884 179.471 99.884 179.011C99.884 178.549 100.258 178.176 100.719 178.176C101.18 178.176 101.554 178.549 101.554 179.011Z" fill="#80B2FF"/>
<path d="M104.417 179.011C104.417 179.471 104.043 179.845 103.582 179.845C103.12 179.845 102.746 179.471 102.746 179.011C102.746 178.549 103.12 178.176 103.582 178.176C104.043 178.176 104.417 178.549 104.417 179.011Z" fill="#80B2FF"/>
<path d="M107.281 179.011C107.281 179.471 106.907 179.845 106.446 179.845C105.985 179.845 105.611 179.471 105.611 179.011C105.611 178.549 105.985 178.176 106.446 178.176C106.907 178.176 107.281 178.549 107.281 179.011Z" fill="#80B2FF"/>
<path d="M110.143 179.011C110.143 179.471 109.769 179.845 109.308 179.845C108.847 179.845 108.473 179.471 108.473 179.011C108.473 178.549 108.847 178.176 109.308 178.176C109.769 178.176 110.143 178.549 110.143 179.011Z" fill="#80B2FF"/>
<path d="M113.008 179.011C113.008 179.471 112.634 179.845 112.172 179.845C111.711 179.845 111.337 179.471 111.337 179.011C111.337 178.549 111.711 178.176 112.172 178.176C112.634 178.176 113.008 178.549 113.008 179.011Z" fill="#80B2FF"/>
<path d="M115.87 179.011C115.87 179.471 115.496 179.845 115.035 179.845C114.573 179.845 114.2 179.471 114.2 179.011C114.2 178.549 114.573 178.176 115.035 178.176C115.496 178.176 115.87 178.549 115.87 179.011Z" fill="#80B2FF"/>
<path d="M118.733 179.011C118.733 179.471 118.359 179.845 117.898 179.845C117.437 179.845 117.063 179.471 117.063 179.011C117.063 178.549 117.437 178.176 117.898 178.176C118.359 178.176 118.733 178.549 118.733 179.011Z" fill="#80B2FF"/>
<path d="M121.596 179.011C121.596 179.471 121.222 179.845 120.761 179.845C120.3 179.845 119.926 179.471 119.926 179.011C119.926 178.549 120.3 178.176 120.761 178.176C121.222 178.176 121.596 178.549 121.596 179.011Z" fill="#80B2FF"/>
<path d="M124.46 179.011C124.46 179.471 124.086 179.845 123.624 179.845C123.163 179.845 122.789 179.471 122.789 179.011C122.789 178.549 123.163 178.176 123.624 178.176C124.086 178.176 124.46 178.549 124.46 179.011Z" fill="#80B2FF"/>
<path d="M123.221 152.987C123.221 158.049 119.118 162.152 114.056 162.152C108.995 162.152 104.892 158.049 104.892 152.987C104.892 147.926 108.995 143.823 114.056 143.823C119.118 143.823 123.221 147.926 123.221 152.987Z" fill="white"/>
<path d="M114.07 152.619C114.965 152.619 115.791 152.183 116.319 151.518C116.708 151.035 116.938 150.416 116.938 149.727C116.938 148.144 115.653 146.837 114.07 146.837C112.464 146.837 111.179 148.144 111.179 149.727C111.179 150.416 111.408 151.035 111.799 151.518C112.327 152.183 113.152 152.619 114.07 152.619Z" fill="#005CEA"/>
<path d="M119.149 157.77C119.149 159.595 108.962 159.595 108.962 157.77L108.965 155.644C109.367 152.737 118.321 152.615 119.151 155.644L119.149 157.77Z" fill="#005CEA"/>
<path d="M95.3126 179.21V179.696C95.3126 179.784 95.2377 179.845 95.1504 179.845C95.0631 179.845 95.0011 179.784 95.0011 179.696V179.21C94.9137 179.161 94.8513 179.072 94.8513 178.96C94.8513 178.799 94.9885 178.661 95.1504 178.661C95.3126 178.661 95.4495 178.799 95.4495 178.96C95.4495 179.072 95.387 179.161 95.3126 179.21ZM94.5532 178.235C94.5532 177.913 94.7522 177.62 95.1537 177.62C95.555 177.62 95.7608 177.895 95.7608 178.235V178.362H94.5532V178.235ZM96.0869 178.362V178.235C96.0869 177.721 95.6684 177.303 95.1537 177.303C94.6389 177.303 94.2204 177.721 94.2204 178.235V178.362H94.0786V180.045C94.0786 180.335 96.2346 180.335 96.2346 180.045V178.362H96.0869Z" fill="#5896FA"/>
<path d="M95.1567 170.987C95.3455 170.987 95.5199 170.896 95.6312 170.756C95.7134 170.654 95.7619 170.524 95.7619 170.378C95.7619 170.044 95.4908 169.768 95.1567 169.768C94.8179 169.768 94.5468 170.044 94.5468 170.378C94.5468 170.524 94.5952 170.654 94.6775 170.756C94.7889 170.896 94.963 170.987 95.1567 170.987Z" fill="#5896FA"/>
<path d="M96.2274 172.076C96.2274 172.46 94.0667 172.46 94.0667 172.076L94.0783 171.628C94.1634 171.013 96.0527 170.988 96.2279 171.628L96.2274 172.076Z" fill="#5896FA"/>
<path d="M109.121 171.856H100.385C100.002 171.856 99.6886 171.544 99.6886 171.161C99.6886 170.777 100.002 170.465 100.385 170.465H109.121C109.504 170.465 109.817 170.777 109.817 171.161C109.817 171.544 109.504 171.856 109.121 171.856Z" fill="#80B2FF"/>
<path d="M120.643 171.856H111.906C111.524 171.856 111.21 171.544 111.21 171.161C111.21 170.777 111.524 170.465 111.906 170.465H120.643C121.026 170.465 121.339 170.777 121.339 171.161C121.339 171.544 121.026 171.856 120.643 171.856Z" fill="#80B2FF"/>
<path d="M116.965 188.574H109.048C107.926 188.574 107.016 187.663 107.016 186.542C107.016 185.42 107.926 184.51 109.048 184.51H116.965C118.087 184.51 118.997 185.42 118.997 186.542C118.997 187.663 118.087 188.574 116.965 188.574Z" fill="#1251B3"/>
<path d="M13.3417 105.84C13.342 105.774 13.3421 105.744 13.3421 105.738C13.342 105.75 13.3417 105.84 13.3417 105.84Z" fill="#D9FFFF"/>
<path d="M13.3417 105.84C13.342 105.774 13.3421 105.744 13.3421 105.738C13.342 105.75 13.3417 105.84 13.3417 105.84Z" fill="#D9FFFF"/>
<path d="M52.3115 106.014C52.3115 106.014 52.3118 105.924 52.312 105.911C52.312 105.918 52.3118 105.947 52.3115 106.014Z" fill="#D9FFFF"/>
<path d="M52.3115 106.014C52.3115 106.014 52.3118 105.924 52.312 105.911C52.312 105.918 52.3118 105.947 52.3115 106.014Z" fill="#D9FFFF"/>
<path d="M32.9068 95.3098C28.3655 100.174 21.1192 104.161 13.3648 105.86C13.3626 106.377 13.3497 109.247 13.2907 122.472C13.2118 140.114 30.0016 148.735 32.6082 150.058C35.1339 148.895 52.1356 140.287 52.2144 122.646C52.2734 109.421 52.2863 106.551 52.2887 106.034C44.55 104.266 37.4044 100.215 32.9068 95.3098Z" fill="white"/>
<path d="M32.8593 98.4978C28.4123 102.577 22.2513 105.784 15.4765 107.531L15.4097 122.479C15.379 129.318 18.0963 135.506 23.4858 140.87C27.0272 144.394 30.7506 146.581 32.6398 147.563C32.7211 147.522 32.8103 147.475 32.8981 147.43V98.5326C32.8852 98.521 32.8717 98.5096 32.8593 98.4978Z" fill="#296ACC"/>
<path d="M32.8994 98.533V147.43C34.8641 146.408 38.4349 144.296 41.8547 140.952C47.2918 135.636 50.0643 129.474 50.0947 122.634L50.1616 107.686C43.422 105.884 37.3066 102.635 32.8994 98.533Z" fill="#2E77E6"/>
<path d="M33.6946 126.226V129.509C33.6946 129.946 33.339 130.309 32.9018 130.309C32.4575 130.309 32.1017 129.946 32.1017 129.509V126.219C31.4275 125.915 30.9534 125.234 30.9534 124.448C30.9534 123.374 31.8275 122.507 32.9018 122.507C33.976 122.507 34.843 123.374 34.843 124.448C34.843 125.241 34.3761 125.923 33.6946 126.226ZM25.0264 120.077V131.657C25.0264 132.947 40.7701 132.947 40.7701 131.657V120.077H25.0264Z" fill="white"/>
<path d="M39.3931 119.252H37.7994V118.473C37.7994 115.771 35.6012 113.573 32.9 113.573C30.1982 113.573 28.0002 115.771 28.0002 118.473V119.252H26.4065V118.473C26.4065 114.892 29.3194 111.979 32.9 111.979C36.4801 111.979 39.3931 114.892 39.3931 118.473V119.252Z" fill="white"/>
<path d="M149.438 35.4984H120.999V0H149.438V35.4984Z" fill="#296ACC"/>
<path d="M153.126 39.1642H124.687V3.66565H153.126V39.1642Z" fill="white"/>
<path d="M153.126 39.1642H124.687V3.66565H153.126V39.1642Z" stroke="#5896FA" stroke-width="6.341" stroke-miterlimit="10"/>
<path d="M157.809 42.763H129.371V7.26453H157.809V42.763Z" fill="white"/>
<path d="M157.809 42.763H129.371V7.26453H157.809V42.763Z" stroke="#5896FA" stroke-width="6.341" stroke-miterlimit="10"/>
<path d="M161.217 46.4287H132.778V10.9302H161.217V46.4287Z" fill="#5896FA"/>
<path d="M156.793 19.0675H142.083V16.7588H156.793V19.0675Z" fill="#005CEA"/>
<path d="M156.792 24.4914H137.731V22.1826H156.792V24.4914Z" fill="#005CEA"/>
<path d="M156.792 29.9153H137.731V27.6066H156.792V29.9153Z" fill="#005CEA"/>
<path d="M156.792 35.3395H137.731V33.0308H156.792V35.3395Z" fill="#005CEA"/>
<path d="M156.792 40.7642H137.731V38.4554H156.792V40.7642Z" fill="#005CEA"/>
<path d="M68.6528 38.6388C68.6528 44.1862 64.1556 48.6834 58.6082 48.6834C53.0608 48.6834 48.5636 44.1862 48.5636 38.6388C48.5636 33.0914 53.0608 28.5942 58.6082 28.5942C64.1556 28.5942 68.6528 33.0914 68.6528 38.6388Z" fill="white"/>
<path d="M53.4248 47.2402C48.6699 44.3728 47.1421 38.2038 50.0095 33.4488C52.8724 28.7013 59.0415 27.1738 63.7964 30.0412C68.5439 32.9042 70.0714 39.0729 67.2087 43.8206C64.3412 48.5754 58.1723 50.103 53.4248 47.2402ZM74.4555 48.1905C75.7579 46.0306 76.5721 43.6966 76.9169 41.341L77.6653 41.4507L79.1427 41.6679L79.1619 41.6695C79.5605 38.9744 79.4249 36.2487 78.7737 33.6443L76.5757 34.1888C75.9859 31.8325 74.947 29.5875 73.4662 27.6089L75.2881 26.2546C73.7294 24.1384 71.7285 22.2886 69.34 20.8483L68.1664 22.7944C65.9989 21.4872 63.6725 20.6776 61.317 20.3328L61.6454 18.0879C58.9503 17.689 56.2201 17.8321 53.6203 18.476L54.1647 20.674C51.8084 21.2638 49.5635 22.3025 47.5846 23.7834L46.2305 21.9615C44.1144 23.5202 42.2644 25.5211 40.8239 27.9096L42.7703 29.0833C41.4633 31.2508 40.6533 33.577 40.3085 35.9327L38.7205 35.6988L38.0711 35.6088L38.0638 35.6045C37.665 38.2993 37.808 41.0297 38.4518 43.6294L40.65 43.0851C41.2397 45.4413 42.2858 47.6907 43.7666 49.6694L41.9447 51.0237C43.5036 53.1398 45.4971 54.9853 47.8855 56.4257L49.0592 54.4796C51.2266 55.7865 53.5604 56.6009 55.9159 56.9457L55.6581 58.6901L55.5875 59.1904C58.2826 59.5892 61.0054 59.4417 63.6051 58.7978L63.0611 56.5997C65.4172 56.0101 67.6666 54.964 69.6527 53.4874L71.0068 55.3094C73.1157 53.7462 74.9611 51.7526 76.4016 49.3642L74.4555 48.1905Z" fill="#005CEA"/>
<path d="M31.6591 56.6438C29.2211 58.2571 25.9422 57.5896 24.3289 55.1515C22.718 52.7173 23.3857 49.4385 25.8237 47.8252C28.258 46.2143 31.5367 46.8818 33.1475 49.3161C34.7608 51.7541 34.0934 55.033 31.6591 56.6438ZM36.8632 46.8573C36.1304 45.7498 35.2044 44.8352 34.1622 44.1391L34.3834 43.808L34.8206 43.1544L34.8256 43.1456C33.634 42.3472 32.3071 41.7956 30.9214 41.5169L30.6838 42.6851C29.4299 42.4332 28.1277 42.4199 26.852 42.677L26.6197 41.5046C25.2611 41.7677 23.9293 42.3013 22.7046 43.1115L23.3649 44.1095C22.2535 44.8448 21.3428 45.7682 20.6465 46.8105L19.6532 46.1471C18.8545 47.3386 18.3056 48.6692 18.0243 50.0512L19.1927 50.289C18.9407 51.5428 18.9274 52.8451 19.1846 54.1207L18.0121 54.353C18.2753 55.7116 18.8087 57.0434 19.6191 58.2681L20.6171 57.6078C21.3524 58.7191 22.2756 59.6299 23.318 60.3262L22.8479 61.0285L22.6584 61.317L22.6547 61.3195C23.8462 62.118 25.1768 62.6669 26.5588 62.9484L26.7966 61.7799C28.0502 62.0319 29.3564 62.0428 30.6319 61.7856L30.8643 62.9581C32.2229 62.6949 33.5509 62.164 34.7757 61.3536L34.1152 60.3557C35.2266 59.6203 36.1412 58.6944 36.8375 57.6522L37.6088 58.169L37.8307 58.3156C38.6294 57.124 39.1745 55.7959 39.4558 54.4141L38.2875 54.1762C38.5395 52.9225 38.5502 51.6163 38.2969 50.3383L39.4693 50.1059C39.2025 48.7498 38.6714 47.4217 37.8611 46.1971L36.8632 46.8573Z" fill="#1251B3"/>
<path d="M201.14 67.2698H176.721C176.207 67.2698 175.79 66.8531 175.79 66.3389V52.4838C175.79 51.9697 176.207 51.553 176.721 51.553H201.14C201.655 51.553 202.072 51.9697 202.072 52.4838V66.3389C202.072 66.8531 201.655 67.2698 201.14 67.2698Z" fill="#005CEA"/>
<path d="M202.072 57.2327H175.79V54.5208H202.072V57.2327Z" fill="#5896FA"/>
<path d="M181.81 64.2542H177.947C177.7 64.2542 177.501 64.4532 177.501 64.6988C177.501 64.9445 177.7 65.1436 177.947 65.1436H181.81C182.055 65.1436 182.256 64.9445 182.256 64.6988C182.256 64.4532 182.055 64.2542 181.81 64.2542Z" fill="#D1F5FF"/>
<path d="M187.754 64.2542H183.888C183.643 64.2542 183.445 64.4532 183.445 64.6988C183.445 64.9445 183.643 65.1436 183.888 65.1436H187.754C187.999 65.1436 188.197 64.9445 188.197 64.6988C188.197 64.4532 187.999 64.2542 187.754 64.2542Z" fill="#D1F5FF"/>
<path d="M193.696 64.2542H189.83C189.585 64.2542 189.387 64.4532 189.387 64.6988C189.387 64.9445 189.585 65.1436 189.83 65.1436H193.696C193.941 65.1436 194.139 64.9445 194.139 64.6988C194.139 64.4532 193.941 64.2542 193.696 64.2542Z" fill="#D1F5FF"/>
<path d="M199.637 64.2542H195.774C195.529 64.2542 195.328 64.4532 195.328 64.6988C195.328 64.9445 195.529 65.1436 195.774 65.1436H199.637C199.884 65.1436 200.083 64.9445 200.083 64.6988C200.083 64.4532 199.884 64.2542 199.637 64.2542Z" fill="#D1F5FF"/>
<path d="M177.769 52.3501C177.497 52.3501 177.278 52.5698 177.278 52.8409V53.0134C177.278 53.2844 177.497 53.5042 177.769 53.5042C178.04 53.5042 178.26 53.2844 178.26 53.0134V52.8409C178.26 52.5698 178.04 52.3501 177.769 52.3501Z" fill="#D1F5FF"/>
<path d="M178.827 52.9272C178.827 53.2458 179.085 53.5042 179.404 53.5042H181.45C181.768 53.5042 182.027 53.2458 182.027 52.9272C182.027 52.6085 181.768 52.3501 181.45 52.3501H179.404C179.085 52.3501 178.827 52.6085 178.827 52.9272Z" fill="#D1F5FF"/>
<path d="M178.558 58.6914H181.199C181.622 58.6914 181.966 59.0346 181.966 59.458V61.7353C181.966 62.1588 181.622 62.5021 181.199 62.5021H178.558C178.134 62.5021 177.791 62.1588 177.791 61.7353V59.458C177.791 59.0346 178.134 58.6914 178.558 58.6914Z" fill="#5896FA"/>
<path d="M191.469 107.304V105.509C191.469 104.693 190.808 104.032 189.994 104.032H174.279C173.465 104.032 172.803 104.693 172.803 105.509V137.244H213.45V107.304H191.469Z" fill="#1251B3"/>
<path d="M215.141 108.395H175.283L172.804 137.244H213.252L215.141 108.395Z" fill="white"/>
<path d="M213.451 137.244H172.804L177.116 108.754C177.243 107.921 177.959 107.304 178.802 107.304H216C217.044 107.304 217.842 108.233 217.686 109.264L213.451 137.244Z" fill="#3383FF"/>
<path d="M227.018 108.395C227.018 113.539 222.85 117.708 217.705 117.708C212.562 117.708 208.392 113.539 208.392 108.395C208.392 103.252 212.562 99.0818 217.705 99.0818C222.85 99.0818 227.018 103.252 227.018 108.395Z" fill="#005CEA"/>
<path d="M217.706 99.4223C212.758 99.4223 208.734 103.447 208.734 108.395C208.734 113.342 212.758 117.368 217.706 117.368C222.655 117.368 226.679 113.342 226.679 108.395C226.679 103.447 222.655 99.4223 217.706 99.4223ZM217.706 118.049C212.383 118.049 208.051 113.718 208.051 108.395C208.051 103.072 212.383 98.7415 217.706 98.7415C223.03 98.7415 227.362 103.072 227.362 108.395C227.362 113.718 223.03 118.049 217.706 118.049Z" fill="white"/>
<path d="M218.16 110.211V112.08C218.16 112.329 217.956 112.535 217.708 112.535C217.454 112.535 217.252 112.329 217.252 112.08V110.206C216.868 110.033 216.598 109.645 216.598 109.198C216.598 108.586 217.095 108.093 217.708 108.093C218.32 108.093 218.813 108.586 218.813 109.198C218.813 109.65 218.547 110.038 218.16 110.211ZM213.223 106.709V113.303C213.223 114.037 222.188 114.037 222.188 113.303V106.709H213.223Z" fill="white"/>
<path d="M221.403 106.239H220.495V105.795C220.495 104.256 219.244 103.004 217.705 103.004C216.167 103.004 214.915 104.256 214.915 105.795V106.239H214.007V105.795C214.007 103.756 215.666 102.097 217.705 102.097C219.745 102.097 221.403 103.756 221.403 105.795V106.239Z" fill="white"/>
<path d="M188.931 30.4527C188.931 32.4219 187.335 34.0183 185.367 34.0183C183.397 34.0183 181.801 32.4219 181.801 30.4527C181.801 28.4836 183.397 26.8873 185.367 26.8873C187.335 26.8873 188.931 28.4836 188.931 30.4527Z" fill="#AAE0FF"/>
<path d="M95.303 43.7575C95.303 45.7267 93.7067 47.323 91.7376 47.323C89.7684 47.323 88.172 45.7267 88.172 43.7575C88.172 41.7884 89.7684 40.1921 91.7376 40.1921C93.7067 40.1921 95.303 41.7884 95.303 43.7575Z" fill="#AAE0FF"/>
<path d="M212.233 91.2298C212.233 92.2599 211.398 93.0949 210.368 93.0949C209.338 93.0949 208.503 92.2599 208.503 91.2298C208.503 90.1995 209.338 89.3645 210.368 89.3645C211.398 89.3645 212.233 90.1995 212.233 91.2298Z" fill="white"/>
<path d="M17.0208 94.7283C17.0208 95.7584 16.1858 96.5935 15.1555 96.5935C14.1254 96.5935 13.2904 95.7584 13.2904 94.7283C13.2904 93.6981 14.1254 92.863 15.1555 92.863C16.1858 92.863 17.0208 93.6981 17.0208 94.7283Z" fill="#AAE0FF"/>
<path d="M47.9018 162.703C47.9018 164.672 46.3056 166.268 44.3364 166.268C42.3672 166.268 40.771 164.672 40.771 162.703C40.771 160.733 42.3672 159.137 44.3364 159.137C46.3056 159.137 47.9018 160.733 47.9018 162.703Z" fill="#AAE0FF"/>
<path d="M101.553 8.36231C101.212 8.36231 100.935 8.08565 100.935 7.74458V1.13045C100.935 0.789227 101.212 0.512573 101.553 0.512573C101.894 0.512573 102.171 0.789227 102.171 1.13045V7.74458C102.171 8.08565 101.894 8.36231 101.553 8.36231Z" fill="#AAE0FF"/>
<path d="M97.6268 4.43682C97.6268 4.0956 97.9035 3.81909 98.2446 3.81909H104.859C105.2 3.81909 105.476 4.0956 105.476 4.43682C105.476 4.77804 105.2 5.05454 104.859 5.05454H98.2446C97.9035 5.05454 97.6268 4.77804 97.6268 4.43682Z" fill="#AAE0FF"/>
<path d="M171.866 93.2894C171.524 93.2894 171.248 93.0128 171.248 92.6716V86.0576C171.248 85.7163 171.524 85.4397 171.866 85.4397C172.207 85.4397 172.484 85.7163 172.484 86.0576V92.6716C172.484 93.0128 172.207 93.2894 171.866 93.2894Z" fill="white"/>
<path d="M167.942 89.365C167.942 89.0238 168.218 88.7473 168.559 88.7473H175.173C175.514 88.7473 175.79 89.0238 175.79 89.365C175.79 89.7063 175.514 89.9829 175.173 89.9829H168.559C168.218 89.9829 167.942 89.7063 167.942 89.365Z" fill="white"/>
<path d="M165.141 180.403C164.801 180.403 164.524 180.127 164.524 179.786V173.172C164.524 172.832 164.801 172.554 165.141 172.554C165.484 172.554 165.76 172.832 165.76 173.172V179.786C165.76 180.127 165.484 180.403 165.141 180.403Z" fill="white"/>
<path d="M161.216 176.48C161.216 176.139 161.492 175.862 161.834 175.862H168.448C168.789 175.862 169.065 176.139 169.065 176.48C169.065 176.822 168.789 177.098 168.448 177.098H161.834C161.492 177.098 161.216 176.822 161.216 176.48Z" fill="white"/>
<path d="M112.07 131.035C112.07 132.128 111.185 133.013 110.092 133.013C109 133.013 108.115 132.128 108.115 131.035C108.115 129.944 109 129.058 110.092 129.058C111.185 129.058 112.07 129.944 112.07 131.035Z" stroke="white" stroke-width="4.226" stroke-miterlimit="10"/>
<path d="M158.695 312.187H150.956L150.155 295.361H159.495L158.695 312.187Z" fill="#0E0E0E"/>
<path d="M293.192 312.187H285.453L284.652 295.361H293.992L293.192 312.187Z" fill="#0E0E0E"/>
<path d="M286.446 266.158C285.592 268.804 284.663 271.519 283.645 274.305H155.175C155.175 274.305 138.595 206.822 155.175 194.481C155.6 194.165 156.108 193.854 156.701 193.55C179.031 182.077 268.558 179.382 286.734 194.143C286.873 194.253 287.002 194.367 287.126 194.481C293.823 200.628 299.646 225.17 286.446 266.158Z" fill="#EA7B00"/>
<path d="M203.611 274.305H155.203L159.924 227.008C168.364 230.67 190.838 250.008 203.611 274.305Z" fill="#982C20"/>
<path d="M286.446 266.158C285.592 268.803 284.663 271.519 283.645 274.305H236.984C245.009 259.423 264.466 236.88 283.361 226.504L286.446 266.158Z" fill="#982C20"/>
<path d="M302.542 226.345H284.731C281.737 226.345 279.207 228.563 278.814 231.532L273.134 274.484H169.037L163.358 231.532C162.964 228.563 160.434 226.345 157.44 226.345H139.629C135.912 226.345 133.101 229.704 133.752 233.362L143.641 304.892H153.423H298.215H298.529L308.419 233.362C309.071 229.704 306.259 226.345 302.542 226.345Z" fill="#EA7B00"/>
<path d="M272.095 251.023C280.477 253.829 278.843 271.576 272.095 274.304H170.413C162.819 272.344 162.178 248.87 173.129 250.635C240.155 263.237 243.402 243.133 272.095 251.023Z" fill="#F2B066"/>
<path d="M194.596 233.034C194.565 237.617 194.812 241.93 195.305 245.709H242.983L245.806 199.153C242.974 182.149 235.222 178.028 222.949 178.028C211.967 178.028 204.652 186.987 200.207 198.979C196.364 209.342 194.665 221.965 194.596 233.034Z" fill="#007880"/>
<path d="M194.595 233.934L211.849 232.895C202.27 229.759 201.508 215.057 211.245 205.91L200.206 198.979C196.363 209.341 194.664 222.863 194.595 233.934Z" fill="#005459"/>
<path d="M191.312 255.327H256.818V233.035H197.811L191.312 255.327Z" fill="#0E0E0E"/>
<path d="M265.187 248.253L247.592 312.187H233.871C238.215 284.981 237.243 267.295 241.328 244.704C244.912 226.16 269.452 231.068 265.187 248.253Z" fill="#0E0E0E"/>
<path d="M242.664 312.188C242.664 312.146 242.661 312.104 242.661 312.061C242.661 307.321 246.503 303.48 251.243 303.48C255.982 303.48 259.823 307.321 259.823 312.061C259.823 312.104 259.822 312.146 259.82 312.188H242.664Z" fill="#B15626"/>
<path d="M252.896 303.64L249.777 302.686C247.719 298.636 238.937 299.137 240.161 304.067C236.714 304.58 234.903 302.864 234.903 302.864L233.871 312.188H252.476L252.896 303.64Z" fill="#B15626"/>
<path d="M187.926 248.253L205.523 312.187H219.242C214.898 284.981 215.871 267.295 211.787 244.704C208.202 226.16 183.661 231.068 187.926 248.253Z" fill="#0E0E0E"/>
<path d="M210.451 312.188C210.451 312.146 210.454 312.104 210.454 312.061C210.454 307.321 206.611 303.48 201.872 303.48C197.132 303.48 193.29 307.321 193.29 312.061C193.29 312.104 193.293 312.146 193.294 312.188H210.451Z" fill="#B15626"/>
<path d="M200.217 303.64L203.336 302.686C205.395 298.636 214.176 299.137 212.954 304.067C216.399 304.58 218.212 302.864 218.212 302.864L219.242 312.188H200.637L200.217 303.64Z" fill="#B15626"/>
<path d="M215.601 179.524C222.037 183.429 222.953 195.026 219.654 199.646L201.293 213.324L219.987 222.951L216.95 232.895C216.95 232.895 197.437 231.306 187.886 221.509C178.715 212.102 201.073 184.469 215.601 179.524Z" fill="#007880"/>
<path d="M228.655 197.116C223.151 190.203 226.952 179.524 233.968 179.838C256.818 187.882 263.871 210.216 256.632 220.242C250.43 228.831 223.151 232.139 223.151 232.139V222.735L242.105 218.64C242.105 218.64 232.331 203.498 228.655 197.116Z" fill="#007880"/>
<path d="M208.634 229.754C208.279 226.604 210.122 222.666 214.862 221.807C223.14 220.303 226.137 224.845 226.92 228.092C227.124 228.938 226.354 229.833 225.644 229.754C224.932 229.676 224.433 229.274 224.311 228.63C224.164 227.854 223.753 226.894 222.865 226.394C223.722 228.071 223.365 229.754 221.033 229.754H208.634Z" fill="#F7A594"/>
<path d="M227.325 229.746L233.84 197.08H235.221C234.78 199.329 228.371 232.015 228.171 233.036C226.463 233.036 210.778 233.036 208.647 233.036L206.514 229.746H227.325Z" fill="#99C1FF"/>
<path d="M235.221 197.08H283.698L276.527 233.036H228.17L235.221 197.08Z" fill="white"/>
<path d="M221.086 181.864C221.086 185.582 232.228 188.048 235.871 184.141C236.422 183.553 236.8 182.827 236.947 181.936L239.045 172.522L225.737 167.504L225.341 168.734L221.086 181.864Z" fill="#F7A594"/>
<path d="M236.947 181.936L239.045 172.522L226.455 169.132C223.196 178.83 234.826 186.58 236.947 181.936Z" fill="#F4856D"/>
<path d="M224.754 163.887C224.053 173.14 231.366 181.288 237.502 181.702C243.637 182.115 252.085 175.262 252.786 166.009C253.487 156.756 247.779 148.779 240.038 148.193C232.298 147.607 225.455 154.633 224.754 163.887Z" fill="#F7A594"/>
<path d="M235.013 148.895C243.497 143.521 248.167 148.575 252.393 153.934C255.356 157.695 257.456 160.397 261.147 160.962C254.049 169.915 239.854 164.01 235.382 155.039C234.941 160.145 228.923 164.374 224.754 163.887C223.404 158.205 227.34 146.717 235.013 148.895Z" fill="#0E0E0E"/>
<path d="M222.679 164.01C222.679 166.05 224.333 167.703 226.372 167.703C228.412 167.703 230.065 166.05 230.065 164.01C230.065 161.969 228.412 160.316 226.372 160.316C224.333 160.316 222.679 161.969 222.679 164.01Z" fill="#F7A594"/>
</svg>
