<svg width="335" height="241" viewBox="0 0 335 241" fill="none" xmlns="http://www.w3.org/2000/svg">
<path d="M329.05 172.196C327.906 172.687 326.828 173.553 326.418 174.374C325.943 175.015 325.836 175.993 326.137 176.743C326.3 177.151 326.648 177.662 327.381 177.784C328.639 178.031 329.173 176.697 329.347 176.111C329.721 174.853 329.615 173.292 329.05 172.196ZM327.692 178.407C327.556 178.407 327.417 178.392 327.276 178.364C326.502 178.235 325.9 177.737 325.589 176.962C325.211 176.018 325.346 174.827 325.918 174.065C326.36 173.172 327.502 172.235 328.729 171.69C328.479 171.37 328.173 171.121 327.814 170.977C326.986 170.646 325.486 170.581 324.337 171.113C323.741 171.39 323.354 171.779 323.19 172.271C323.138 172.425 322.973 172.51 322.817 172.458C322.662 172.406 322.579 172.239 322.631 172.084C322.845 171.442 323.35 170.921 324.09 170.578C325.228 170.049 326.924 169.985 328.033 170.43C328.549 170.636 328.971 171.002 329.298 171.468C329.51 171.398 329.721 171.34 329.93 171.299C331.182 170.88 332.264 170.904 333.109 171.383C334.018 171.897 334.652 172.937 334.993 174.473C335.028 174.631 334.928 174.789 334.769 174.824C334.609 174.859 334.452 174.759 334.417 174.601C334.113 173.234 333.575 172.324 332.819 171.896C332.123 171.502 331.202 171.493 330.081 171.868C329.924 171.899 329.765 171.941 329.606 171.99C330.22 173.23 330.319 174.912 329.912 176.279C329.508 177.64 328.695 178.406 327.692 178.407Z" fill="#292929"/>
<path d="M80.9145 186.894C80.7223 186.894 80.5206 186.937 80.3183 187.023C79.1188 187.534 78.6671 188.529 78.499 189.274C78.3557 189.912 78.3622 190.622 78.4966 191.299C78.7685 191.294 79.0433 191.261 79.3175 191.198C80.6438 190.877 81.8781 189.839 82.1235 188.835C82.2555 188.13 82.0792 187.493 81.6487 187.148C81.4394 186.98 81.1864 186.894 80.9145 186.894ZM82.8647 195.442C81.4181 195.442 80.07 194.869 79.0433 193.809C78.5874 193.295 78.2425 192.612 78.0337 191.873C77.2706 191.806 76.5376 191.543 75.8906 191.095C74.7625 190.314 74.0011 189.036 73.8024 187.59C73.5777 185.798 74.1957 184.695 75.1641 183.216C75.2537 183.08 75.4365 183.042 75.5728 183.131C75.709 183.221 75.7467 183.403 75.6577 183.54C74.7371 184.944 74.1834 185.888 74.3874 187.513C74.5631 188.793 75.2337 189.923 76.2262 190.61C76.7339 190.962 77.3018 191.182 77.8957 191.263C77.7713 190.549 77.7736 189.812 77.924 189.144C78.2082 187.884 78.956 186.962 80.0871 186.481C80.7718 186.189 81.4936 186.267 82.0179 186.688C82.6206 187.172 82.8759 188.021 82.7002 188.96C82.3977 190.195 81.0036 191.397 79.4526 191.773C79.1837 191.834 78.9136 191.871 78.6464 191.884C78.8322 192.467 79.1141 193.001 79.4756 193.409C80.4392 194.402 81.7389 194.911 83.1148 194.847C84.5661 194.772 85.9142 194.077 86.8136 192.938C86.9144 192.81 87.1002 192.788 87.2275 192.889C87.3555 192.989 87.3773 193.175 87.2765 193.303C86.2716 194.576 84.766 195.352 83.1449 195.435C83.0511 195.44 82.9573 195.442 82.8647 195.442Z" fill="#292929"/>
<path d="M91.8577 18.4882C91.8471 18.5083 91.8364 18.5283 91.8258 18.5484C91.104 19.949 91.3835 21.3997 92.6119 22.6334C93.5077 23.5327 94.3534 23.8612 94.9302 23.5363C95.534 23.196 95.7994 22.1758 95.5482 21.1632C95.399 20.5623 94.6954 18.6168 91.8577 18.4882ZM85.2598 26.4454C85.0976 26.4454 84.9655 26.3139 84.9649 26.1517C84.9537 23.6353 85.9256 21.1154 87.5008 19.5757C88.6142 18.4876 90.0006 17.9079 91.5239 17.8926C92.7175 16.0196 95.2097 14.8667 97.3976 15.2294C98.6802 15.4423 99.8037 16.144 100.89 16.8228C102.899 18.0772 104.634 19.1617 106.866 16.8069C106.978 16.6889 107.164 16.6836 107.283 16.7957C107.401 16.9077 107.406 17.0947 107.294 17.2126C104.731 19.9177 102.62 18.5991 100.577 17.3223C99.5406 16.6748 98.4679 16.0043 97.3009 15.8108C95.478 15.5101 93.3515 16.4301 92.2209 17.9232C94.5763 18.1568 95.7788 19.6441 96.1202 21.0205C96.4387 22.3026 96.0595 23.5764 95.2203 24.0499C94.7355 24.3236 93.697 24.5577 92.1944 23.0497C90.8528 21.7028 90.496 20.0551 91.1972 18.4947C89.9499 18.5796 88.8471 19.0838 87.913 19.9973C86.4481 21.4298 85.5446 23.7869 85.5547 26.1493C85.5553 26.3121 85.4237 26.4448 85.261 26.4454C85.2604 26.4454 85.2598 26.4454 85.2598 26.4454Z" fill="#292929"/>
<path d="M327.771 101.211C326.592 101.211 325.477 101.719 324.789 102.569C324.109 103.41 323.887 104.506 324.15 105.739C324.509 107.427 325.889 108.518 327.665 108.518C328.181 108.518 328.7 108.424 329.209 108.239C330.08 107.922 330.894 107.11 331.332 106.119C331.705 105.276 331.756 104.435 331.475 103.75C330.804 102.161 329.418 101.211 327.771 101.211ZM327.665 109.107C325.599 109.107 323.993 107.833 323.573 105.861C323.193 104.078 323.775 102.884 324.331 102.198C325.129 101.211 326.416 100.622 327.771 100.622C329.663 100.622 331.251 101.706 332.02 103.523C332.364 104.362 332.31 105.367 331.872 106.358C331.37 107.49 330.427 108.423 329.41 108.793C328.837 109.002 328.25 109.107 327.665 109.107Z" fill="#FAAD3A"/>
<path d="M32.6118 181.807C31.4323 181.807 30.3178 182.315 29.6301 183.165C28.949 184.006 28.7278 185.102 28.9903 186.334C29.35 188.022 30.73 189.114 32.5051 189.114C33.0217 189.114 33.5412 189.02 34.0495 188.835C34.9206 188.518 35.7344 187.706 36.1726 186.717C36.5459 185.873 36.5966 185.031 36.3159 184.345C35.6442 182.758 34.2589 181.807 32.6118 181.807ZM32.5051 189.704C30.4398 189.704 28.8334 188.429 28.4135 186.457C28.0331 184.673 28.6158 183.48 29.1719 182.794C29.9704 181.807 31.2566 181.217 32.6118 181.217C34.5036 181.217 36.0918 182.302 36.8608 184.118C37.204 184.958 37.1509 185.964 36.7122 186.955C36.2109 188.087 35.2679 189.019 34.2506 189.389C33.6774 189.597 33.0907 189.704 32.5051 189.704Z" fill="#40BDDE"/>
<path d="M323.971 128.331C323.426 128.331 322.901 128.492 322.452 128.796L313.749 134.708C313.151 135.114 312.747 135.732 312.61 136.448C312.473 137.163 312.622 137.887 313.028 138.484L318.939 147.186C319.444 147.93 320.287 148.374 321.195 148.374C321.74 148.374 322.266 148.213 322.716 147.907L331.416 141.998C332.657 141.155 332.98 139.461 332.139 138.22L326.227 129.519C325.723 128.775 324.878 128.331 323.971 128.331ZM321.195 148.964C320.091 148.964 319.066 148.423 318.451 147.518L312.539 138.816C312.046 138.088 311.865 137.207 312.031 136.337C312.197 135.466 312.689 134.715 313.417 134.22L322.121 128.308C322.667 127.937 323.307 127.741 323.971 127.741C325.074 127.741 326.101 128.282 326.716 129.188L332.627 137.889C333.65 139.399 333.256 141.46 331.748 142.486L323.048 148.395C322.499 148.768 321.859 148.964 321.195 148.964Z" fill="#40BDDE"/>
<path d="M60.0743 208.417C59.5577 208.417 59.1295 208.595 58.8376 208.931C58.4596 209.367 58.3157 210.063 58.4331 210.892L60.1433 222.974C60.3208 224.227 60.9677 224.975 61.8741 224.975C62.3754 224.975 62.9309 224.747 63.4799 224.317L73.0872 216.794C73.8603 216.188 74.2354 215.49 74.141 214.828C74.0473 214.167 73.4935 213.6 72.5812 213.232L61.2638 208.675C60.8397 208.504 60.4399 208.417 60.0743 208.417ZM61.8741 225.565C60.6652 225.565 59.7788 224.604 59.5594 223.057L57.8492 210.975C57.7053 209.96 57.8935 209.12 58.3924 208.545C59.0594 207.776 60.2135 207.616 61.4843 208.128L72.8018 212.686C73.9175 213.135 74.6004 213.867 74.7255 214.746C74.8499 215.624 74.3976 216.517 73.4505 217.258L63.8432 224.781C63.1898 225.294 62.5087 225.565 61.8741 225.565Z" fill="#FAAD3A"/>
<path d="M153.298 6.44568C152.852 6.44568 152.346 6.60963 151.834 6.91924L141.396 13.2388C140.555 13.7471 140.1 14.3952 140.114 15.0634C140.128 15.7315 140.61 16.3602 141.471 16.8343L152.164 22.7133C153.17 23.2659 154.11 23.2559 154.668 22.6862C155.059 22.2869 155.257 21.6518 155.241 20.8492L154.985 8.65127C154.958 7.29077 154.311 6.44568 153.298 6.44568ZM153.565 23.7159C153.033 23.7159 152.466 23.5525 151.88 23.2299L141.187 17.3509C140.134 16.7718 139.543 15.9639 139.524 15.0758C139.506 14.1882 140.062 13.3567 141.09 12.734L151.529 6.41443C152.141 6.04408 152.736 5.85596 153.298 5.85596C154.646 5.85596 155.54 6.94813 155.575 8.63888L155.83 20.8374C155.85 21.8016 155.594 22.5836 155.09 23.099C154.694 23.5024 154.167 23.7159 153.565 23.7159Z" fill="#FDCA81"/>
<path d="M209.373 93.549C183.789 93.549 159.097 106.416 139.847 129.782C113.281 162.025 107.705 178.183 104.71 186.864C104.554 187.314 104.405 187.747 104.26 188.161C100.466 199.004 100.647 208.349 104.8 215.935C109.729 224.94 120.245 231.405 136.059 235.15C150.059 238.466 171.178 240.293 195.528 240.293C195.53 240.293 195.535 240.293 195.538 240.293C233.958 240.293 280.675 235.547 298.447 224.941C308.056 219.206 313.052 204.638 311.483 186.92C308.945 158.22 287.979 117.899 237.25 98.7144C228.186 95.2863 218.807 93.549 209.373 93.549ZM195.538 240.883C195.533 240.883 195.532 240.883 195.528 240.883C171.134 240.882 149.967 239.05 135.923 235.724C119.941 231.939 109.295 225.376 104.283 216.218C100.047 208.479 99.8515 198.974 103.704 187.966C103.849 187.552 103.997 187.122 104.152 186.672C107.16 177.955 112.758 161.731 139.392 129.406C158.756 105.903 183.609 92.9592 209.373 92.9592C218.878 92.9592 228.328 94.7095 237.458 98.1624C260.22 106.771 279.254 120.609 292.502 138.181C303.652 152.969 310.602 170.26 312.071 186.867C313.659 204.813 308.554 219.596 298.749 225.447C280.882 236.11 234.038 240.883 195.538 240.883Z" fill="#292929"/>
<path d="M79.6943 69.2589C80.8673 71.179 81.8262 74.5941 82.3611 78.3283C82.7356 80.9414 83.4285 81.2091 85.9885 82.3827C88.5497 83.5562 89.1371 85.7966 87.75 87.0769C85.7738 88.9003 85.7762 87.9043 85.5097 89.9577C85.331 91.3276 85.7025 92.421 83.8596 91.8313C83.136 91.5995 81.6399 90.709 81.427 90.873C80.7889 91.366 80.9847 93.2319 83.4173 94.6325C84.3042 95.1432 85.039 95.0748 84.2553 99.1339C83.5724 102.669 79.2939 103.215 75.0526 102.414C70.8113 101.614 71.6917 104.815 70.0116 109.376C68.3309 113.938 68.0909 116.498 70.4109 118.419C72.732 120.34 74.5726 129.542 74.3325 131.783C74.0925 134.023 66.0899 138.664 59.288 131.143C55.6075 126.021 51.4458 116.178 51.4458 116.178C51.4458 116.178 55.7667 110.177 55.6871 104.335C55.6075 98.4934 53.1265 76.4866 61.2087 70.2449C69.291 64.0038 78.8935 67.7126 79.6943 69.2589Z" fill="#FEFEFE"/>
<path d="M51.781 116.214C52.3212 117.471 56.1545 126.278 59.5271 130.971C62.5147 134.272 65.5877 134.97 67.6364 134.97C71.1954 134.97 73.9176 132.882 74.0391 131.752C74.2709 129.587 72.4127 120.459 70.2224 118.647C67.6842 116.545 68.0923 113.732 69.7341 109.275C70.1817 108.062 70.4436 106.949 70.6759 105.967C71.219 103.662 71.6124 101.997 73.8917 101.997C74.2532 101.997 74.6513 102.039 75.1071 102.125C76.2229 102.335 77.2867 102.442 78.268 102.442C80.5709 102.442 83.4288 101.858 83.9654 99.0783C84.6353 95.6084 84.1919 95.376 83.5202 95.0245C83.4388 94.9815 83.355 94.9378 83.2695 94.8883C81.8141 94.0503 80.9 92.8909 80.8251 91.7875C80.7915 91.291 80.9448 90.8734 81.2462 90.6399C81.5021 90.4418 81.9474 90.6352 82.8903 91.0863C83.2796 91.2727 83.6817 91.4649 83.9489 91.551C84.2591 91.6501 84.5085 91.7002 84.6896 91.7002C85.0387 91.7002 85.1036 91.5563 85.1543 90.6747C85.1673 90.4394 85.1826 90.1852 85.2168 89.9204C85.3943 88.554 85.4645 88.4066 86.1533 87.9543C86.444 87.7638 86.8834 87.4754 87.5492 86.8603C88.0463 86.4015 88.2633 85.7935 88.1607 85.1472C88.0056 84.1718 87.1476 83.2382 85.8655 82.6509L85.7157 82.5825C83.2796 81.4667 82.4587 81.0916 82.0688 78.37C81.5151 74.5038 80.5574 71.239 79.4422 69.4127C79.0677 68.692 75.9227 67.0443 71.4785 67.0443C68.9044 67.0443 65.0646 67.6405 61.3883 70.4789C54.5522 75.7587 55.4244 92.829 55.8437 101.033C55.9115 102.364 55.9699 103.514 55.9817 104.331C56.056 109.785 52.4403 115.262 51.781 116.214ZM67.6364 135.559C65.468 135.559 62.2222 134.828 59.0689 131.341C55.3908 126.225 51.2155 116.392 51.1742 116.294C51.1341 116.199 51.1459 116.09 51.2061 116.006C51.2491 115.947 55.4692 110.014 55.3919 104.339C55.3807 103.533 55.3223 102.388 55.2545 101.063C54.8299 92.7588 53.9471 75.4804 61.028 70.0124C64.8358 67.072 68.8124 66.4546 71.4785 66.4546C75.8101 66.4546 79.3921 68.0351 79.9553 69.1237C81.1011 70.9973 82.0877 74.344 82.6527 78.2869C82.9971 80.6888 83.5656 80.9495 85.961 82.0458L86.1114 82.1148C87.5946 82.7948 88.5541 83.8663 88.7428 85.0546C88.8778 85.902 88.596 86.697 87.9496 87.2938C87.2478 87.9419 86.7837 88.2456 86.4771 88.4473C85.9681 88.7817 85.9587 88.7876 85.8012 89.9965C85.7688 90.2466 85.7552 90.4866 85.7428 90.7083C85.6898 91.6389 85.6031 92.7004 83.7696 92.1125C83.4636 92.0146 83.0425 91.8135 82.6356 91.6183C82.2806 91.4484 81.7604 91.1996 81.5558 91.1553C81.449 91.278 81.396 91.4926 81.4137 91.7474C81.4614 92.4474 82.0512 93.506 83.5644 94.3776C83.6422 94.4224 83.7195 94.4625 83.7938 94.502C84.7545 95.0051 85.2628 95.4709 84.5445 99.1904C84.0663 101.668 81.8371 103.032 78.268 103.032C77.2502 103.032 76.1497 102.922 74.998 102.705C74.584 102.626 74.2119 102.587 73.8917 102.587C72.152 102.587 71.8247 103.665 71.2497 106.103C71.0138 107.1 70.7473 108.231 70.2879 109.479C68.5028 114.324 68.5812 116.522 70.5986 118.193C73.0183 120.195 74.8789 129.449 74.6253 131.815C74.4637 133.323 71.4579 135.559 67.6364 135.559Z" fill="#292929"/>
<path d="M55.4741 171.261C56.9679 171.902 71.0518 172.648 71.0518 172.648C71.0518 172.648 77.2404 152.91 74.6804 130.29C69.5586 134.771 63.7964 133.703 58.0353 129.009C61.6621 140.106 59.9561 162.938 55.4741 171.261Z" fill="#292929"/>
<path d="M77.1433 83.6903C77.4553 84.6887 78.1694 85.3545 78.7379 85.1776C79.307 84.9995 79.5152 84.0459 79.2038 83.0469C78.8924 82.0491 78.1777 81.3833 77.6104 81.562C77.0413 81.7395 76.8313 82.6919 77.1433 83.6903Z" fill="#292929"/>
<path d="M78.1015 82.0393C78.0743 82.0393 78.046 82.0358 78.0183 82.0275C77.862 81.9815 77.773 81.8176 77.819 81.6613L78.3527 79.8473C78.3987 79.6916 78.5626 79.6008 78.7189 79.648C78.8752 79.6934 78.9642 79.8579 78.9182 80.0136L78.3845 81.8282C78.3468 81.9562 78.2294 82.0393 78.1015 82.0393Z" fill="#292929"/>
<path d="M63.9031 142.239C62.256 130.091 56.8246 122.054 52.0207 114.607C51.2835 113.465 50.6018 113.628 50.288 113.69C47.991 114.146 45.4275 115.224 46.0845 116.632C46.2242 116.929 46.4377 117.236 46.7043 117.576C45.7076 117.777 44.5146 118.027 43.0975 118.339C37.7616 119.512 34.4603 121.622 31.1526 124.93C27.8448 128.237 10.9308 148.746 6.23657 153.974C12.4252 165.925 23.0438 167.685 23.0438 167.685C23.0438 167.685 32.7478 157.923 38.829 150.454C38.615 151.947 37.8696 165.819 35.7353 171.26C39.5043 173.447 49.9808 173.343 55.8073 173.093C56.7638 173.971 60.4891 173.181 60.4891 173.181C60.4891 173.181 65.6098 154.829 63.9031 142.239Z" fill="#40BDDE"/>
<path d="M45.9241 72.5662C43.1234 73.6065 40.0026 76.1671 38.3219 87.1301C37.5092 92.4318 35.5419 98.1238 35.9122 103.53C36.259 108.591 40.6419 109.971 45.1096 110.864C49.0455 111.652 64.343 115.299 65.3078 108.712C66.433 101.028 54.3212 97.1696 56.0585 90.0375C56.4118 88.5879 57.8678 86.7863 59.3669 86.4507C61.28 86.0232 61.8485 87.6579 63.3363 88.661C65.1486 89.883 66.2337 89.1688 67.3223 87.3347C68.3514 85.6015 67.9657 82.8245 67.8029 80.8784C67.5895 78.3284 67.2863 77.4073 69.499 76.6772C72.4901 75.6912 75.0513 73.6649 72.1722 70.2456C76.0131 74.8066 77.9333 74.0865 81.0541 72.0862C84.175 70.0852 84.3354 68.2447 83.1347 64.8042C81.934 61.3631 78.2535 56.0815 71.7718 56.8818C65.2901 57.6821 65.93 59.4424 58.168 61.0429C50.4054 62.6435 45.444 64.964 45.9241 72.5662Z" fill="#292929"/>
<path d="M74.8926 78.5423C74.8595 78.5423 74.8265 78.537 74.7935 78.5252C74.6402 78.4704 74.56 78.3017 74.6148 78.1484C74.8242 77.5616 76.0077 74.6059 78.7535 74.038C78.9127 74.0056 79.069 74.1076 79.102 74.2668C79.1351 74.426 79.0324 74.5823 78.8726 74.6153C76.4365 75.119 75.3608 77.8117 75.1703 78.3465C75.1273 78.4668 75.0134 78.5423 74.8926 78.5423Z" fill="#292929"/>
<path d="M55.581 172.836C55.5751 172.836 55.5686 172.836 55.5627 172.835C55.4 172.825 55.2767 172.686 55.2867 172.523C55.3027 172.267 55.3569 171.568 55.4359 170.551C55.8977 164.62 57.1255 148.862 56.675 145.263C56.2038 141.496 57.2246 140.552 58.7708 139.123C58.9637 138.945 59.1665 138.757 59.3777 138.554C58.6169 138.069 56.6189 136.8 55.1069 135.876C53.5276 134.911 53.1802 133.601 52.2514 130.099C51.9742 129.054 51.6599 127.869 51.243 126.423C49.9756 122.022 48.1705 119.83 46.9757 118.379C46.6826 118.024 46.4296 117.717 46.2185 117.422C46.1241 117.289 46.1542 117.104 46.2869 117.01C46.4202 116.915 46.6042 116.946 46.6985 117.079C46.8979 117.357 47.145 117.657 47.431 118.004C48.6564 119.493 50.5088 121.742 51.8097 126.26C52.2284 127.713 52.5569 128.952 52.8211 129.948C53.7057 133.283 54.0371 134.531 55.4147 135.372C57.316 136.535 59.981 138.239 60.0081 138.257C60.083 138.305 60.1325 138.384 60.142 138.473C60.1514 138.562 60.1207 138.65 60.0576 138.713C59.7451 139.025 59.4484 139.3 59.1707 139.557C57.6592 140.954 56.8265 141.723 57.2605 145.19C57.7176 148.848 56.4874 164.649 56.0239 170.597C55.9455 171.609 55.8912 172.305 55.8753 172.56C55.8653 172.716 55.7361 172.836 55.581 172.836Z" fill="#FEFEFE"/>
<path d="M96.7656 134.237L94.5246 140.852C94.5246 140.852 89.1899 131.143 85.7754 126.875C82.5844 122.886 77.9969 120.389 74.3624 119.034C71.9097 114.976 68.4451 114.389 68.4451 114.389C68.4451 114.389 68.1703 115.351 68.678 116.566C69.1852 117.781 74.6785 127.301 73.3988 142.453C72.1191 157.603 67.7439 172.648 67.7439 172.648H71.0517C71.0517 172.648 71.077 172.564 71.1242 172.41C73.6129 172.73 78.6798 173.24 78.8402 172.115C79.0537 170.621 81.9351 158.671 83.6418 154.936C88.763 164.431 93.515 166.369 100.39 163.481C105.305 161.417 109.356 144.907 109.889 138.398C109.996 138.291 96.7656 134.237 96.7656 134.237Z" fill="#40BDDE"/>
<path d="M71.0517 172.943C71.0234 172.943 70.9945 172.938 70.9656 172.93C70.81 172.882 70.7221 172.717 70.7698 172.562C70.8359 172.345 77.3925 150.866 78.3402 146.762C79.3138 142.54 79.2826 142.033 78.648 140.792C77.8495 139.234 77.1643 137.865 77.1643 137.865C77.0964 137.728 77.1436 137.562 77.2734 137.482C77.9934 137.037 79.7944 135.619 79.4884 134.416C78.8072 131.744 76.2124 122.889 74.3153 119.524L74.254 119.416C74.1732 119.275 74.2227 119.095 74.3636 119.014C74.5052 118.932 74.685 118.983 74.7664 119.123L74.8295 119.235C76.755 122.651 79.374 131.579 80.0598 134.271C80.4626 135.852 78.4965 137.363 77.8094 137.835C78.0377 138.29 78.5731 139.354 79.1723 140.524C79.9142 141.972 79.8853 142.687 78.9146 146.894C77.9628 151.018 71.4003 172.517 71.3336 172.734C71.2953 172.861 71.1785 172.943 71.0517 172.943Z" fill="#FEFEFE"/>
<path d="M83.6414 155.231C83.6007 155.231 83.5589 155.222 83.5194 155.204C83.3713 155.136 83.3065 154.961 83.3737 154.813C88.1705 144.314 86.3825 140.535 85.3145 138.277C85.1287 137.885 84.9677 137.545 84.8563 137.21C84.8056 137.057 84.8887 136.889 85.0432 136.837C85.1989 136.786 85.3652 136.87 85.4165 137.024C85.5162 137.325 85.6695 137.649 85.8476 138.025C86.9592 140.376 88.821 144.31 83.9098 155.059C83.8602 155.166 83.7535 155.231 83.6414 155.231Z" fill="#292929"/>
<path d="M96.2599 145.148C96.1496 145.148 96.0441 145.086 95.9934 144.98C95.9816 144.955 94.8039 142.49 93.7465 139.952C93.684 139.802 93.7547 139.629 93.9051 139.566C94.0555 139.506 94.2283 139.574 94.2908 139.725C95.3423 142.249 96.5141 144.701 96.5259 144.725C96.5961 144.872 96.5335 145.049 96.3867 145.119C96.3454 145.139 96.3024 145.148 96.2599 145.148Z" fill="#292929"/>
<path d="M97.619 131.702C98.8191 127.942 100.58 117.779 100.98 114.018C101.38 110.257 99.1393 104.975 101.78 101.614C104.421 98.2535 106.102 96.5728 106.822 94.8921C107.542 93.212 109.222 92.9719 110.102 94.6521C110.983 96.3328 109.622 99.2938 107.622 101.374C112.503 98.2535 112.903 99.3734 114.423 96.9732C115.944 94.5719 118.905 88.4104 120.826 88.5708C122.426 86.41 124.266 87.6101 124.587 90.5712C125.547 90.4915 126.427 92.7319 125.787 96.0928C128.107 97.4533 127.867 102.414 124.587 106.175C121.305 109.937 115.064 112.177 113.703 115.218C112.343 118.259 110.102 136.104 110.102 136.104L97.619 131.702Z" fill="#FEFEFE"/>
<path d="M97.9843 131.519L109.856 135.704C110.19 133.082 112.164 117.938 113.434 115.098C114.199 113.388 116.4 111.943 118.731 110.412C120.766 109.077 122.868 107.695 124.364 105.982C126.307 103.754 127.324 100.847 126.954 98.577C126.782 97.522 126.327 96.7506 125.638 96.3467C125.53 96.2836 125.474 96.1597 125.497 96.0371C125.965 93.582 125.605 91.7957 125.041 91.1146C124.946 91.0002 124.799 90.864 124.636 90.864C124.486 90.864 124.309 90.7525 124.293 90.6027C124.109 88.9043 123.397 87.7632 122.522 87.7632C122.043 87.7632 121.539 88.1029 121.062 88.7457C121.001 88.8276 120.904 88.8748 120.801 88.8642C120.801 88.8642 120.8 88.8642 120.8 88.8642C119.419 88.8642 117.264 92.6426 115.838 95.143C115.409 95.8961 115.004 96.6073 114.672 97.1304C113.755 98.5788 113.201 98.8229 111.986 99.3584C111.085 99.7547 109.851 100.298 107.78 101.622C107.655 101.702 107.488 101.675 107.393 101.561C107.299 101.445 107.306 101.277 107.409 101.169C109.221 99.2847 110.689 96.408 109.841 94.7886C109.507 94.1511 109.043 93.8002 108.534 93.8002C107.955 93.8002 107.416 94.2514 107.092 95.008C106.576 96.2122 105.618 97.3746 104.167 99.1343C103.535 99.8998 102.82 100.768 102.012 101.796C100.359 103.899 100.711 106.837 101.051 109.678C101.238 111.24 101.415 112.715 101.273 114.049C100.895 117.602 99.1992 127.503 97.9843 131.519ZM110.102 136.399C110.069 136.399 110.036 136.393 110.004 136.382L97.5208 131.98C97.3704 131.927 97.2891 131.765 97.3374 131.612C98.547 127.823 100.301 117.603 100.686 113.986C100.821 112.719 100.649 111.276 100.466 109.748C100.112 106.788 99.7447 103.727 101.548 101.432C102.36 100.398 103.078 99.5271 103.712 98.7592C105.131 97.0384 106.068 95.902 106.55 94.7762C106.97 93.7955 107.712 93.2105 108.534 93.2105C109.262 93.2105 109.929 93.6858 110.363 94.515C111.151 96.0176 110.348 98.2916 108.973 100.208C110.233 99.4858 111.111 99.0995 111.749 98.8182C112.916 98.304 113.353 98.1117 114.174 96.8149C114.498 96.303 114.9 95.5977 115.326 94.8511C117.347 91.3063 119.148 88.3629 120.681 88.2745C121.395 87.3681 122.072 87.1735 122.522 87.1735C123.685 87.1735 124.585 88.3918 124.85 90.3002C125.041 90.3468 125.27 90.4665 125.495 90.7384C126.085 91.4513 126.59 93.237 126.113 95.9504C126.859 96.4658 127.349 97.3362 127.536 98.4821C127.933 100.919 126.862 104.014 124.809 106.369C123.26 108.144 121.122 109.548 119.055 110.905C116.798 112.387 114.667 113.786 113.972 115.338C112.646 118.305 110.417 135.963 110.395 136.141C110.383 136.229 110.333 136.308 110.257 136.355C110.21 136.384 110.156 136.399 110.102 136.399Z" fill="#292929"/>
<path d="M110.502 106.87C110.369 106.87 110.248 106.78 110.215 106.644C109.811 104.945 108.291 102.174 107.458 101.62C107.323 101.529 107.286 101.346 107.377 101.21C107.467 101.075 107.65 101.038 107.785 101.129C108.821 101.819 110.381 104.793 110.789 106.507C110.827 106.666 110.729 106.824 110.57 106.862C110.548 106.868 110.525 106.87 110.502 106.87Z" fill="#292929"/>
<path d="M120.266 105.271C120.157 105.271 120.054 105.211 120.002 105.108C119.704 104.512 116.161 100.264 114.81 99.8139C114.656 99.7626 114.573 99.5957 114.624 99.4406C114.676 99.2867 114.842 99.2029 114.997 99.2542C116.546 99.7708 120.206 104.197 120.53 104.844C120.602 104.99 120.543 105.167 120.397 105.239C120.355 105.261 120.31 105.271 120.266 105.271Z" fill="#292929"/>
<path d="M119.545 105.671C119.434 105.671 119.327 105.607 119.277 105.499C119.209 105.352 119.273 105.176 119.421 105.108C120.348 104.68 122.386 102.067 122.936 99.0804C123.218 97.5495 123.689 96.5982 124.376 96.173C125.011 95.7791 125.714 95.9141 126.188 96.0492C126.345 96.094 126.435 96.2574 126.391 96.4136C126.345 96.5699 126.183 96.659 126.026 96.6165C125.436 96.4473 125.023 96.4655 124.686 96.6743C124.157 97.0028 123.763 97.8485 123.516 99.1877C122.95 102.263 120.825 105.11 119.668 105.643C119.628 105.662 119.586 105.671 119.545 105.671Z" fill="#292929"/>
<path d="M118.505 103.029C118.422 103.029 118.341 102.995 118.282 102.928C118.175 102.805 118.188 102.619 118.311 102.512C120.056 100.995 120.771 98.7836 121.416 95.4764C122.01 92.4322 123.168 90.7379 124.856 90.4413C125.015 90.4112 125.169 90.5192 125.197 90.6802C125.225 90.8406 125.118 90.9933 124.958 91.0216C123.535 91.2722 122.538 92.8091 121.995 95.589C121.325 99.0224 120.571 101.329 118.698 102.957C118.642 103.005 118.574 103.029 118.505 103.029Z" fill="#292929"/>
<path d="M116.664 100.949C116.606 100.949 116.547 100.932 116.495 100.896C116.361 100.802 116.33 100.618 116.423 100.485C117.291 99.2508 118.382 95.7236 119.257 92.8894C119.912 90.7699 120.478 88.9394 120.887 88.1893C120.965 88.046 121.144 87.9935 121.287 88.0719C121.43 88.1498 121.483 88.329 121.405 88.4718C121.024 89.17 120.439 91.0613 119.821 93.0634C118.887 96.0869 117.827 99.5138 116.906 100.824C116.848 100.906 116.757 100.949 116.664 100.949Z" fill="#292929"/>
<path d="M38.1887 151.39C38.1214 151.39 38.0536 151.367 37.9982 151.32C37.8737 151.214 37.859 151.028 37.9646 150.904C39.7626 148.789 43.38 144.957 43.4166 144.918C43.5281 144.8 43.7144 144.794 43.8329 144.906C43.9515 145.018 43.9568 145.205 43.8447 145.323C43.8088 145.362 40.202 149.183 38.4139 151.286C38.3555 151.355 38.2724 151.39 38.1887 151.39Z" fill="#292929"/>
<path d="M97.0978 130.751C95.9183 132.962 95.236 136.549 95.476 136.869C95.7161 137.19 104.469 137.901 110.44 142.177C111.801 142.817 112.236 136.513 112.023 135.784C111.463 133.863 97.8184 129.951 97.0978 130.751Z" fill="#292929"/>
<path d="M63.7964 142.001C63.7274 142.001 63.6584 141.977 63.6024 141.928C63.5752 141.905 60.8867 139.571 59.6365 138.738C59.5008 138.647 59.4643 138.464 59.5545 138.329C59.6447 138.193 59.8269 138.157 59.9632 138.247C61.2452 139.101 63.8784 141.386 63.9898 141.483C64.1125 141.59 64.1255 141.776 64.0187 141.899C63.9603 141.966 63.8784 142.001 63.7964 142.001Z" fill="#FEFEFE"/>
<path d="M73.5152 140.801C73.4397 140.801 73.3643 140.772 73.3065 140.715C73.1915 140.6 73.1915 140.413 73.3065 140.298C74.4334 139.171 75.8735 138.307 76.826 137.735C77.063 137.594 77.2653 137.472 77.4198 137.372C77.5566 137.283 77.7394 137.322 77.8279 137.458C77.9164 137.595 77.8774 137.777 77.7412 137.866C77.582 137.969 77.3732 138.095 77.1297 138.241C76.2014 138.798 74.7991 139.64 73.724 140.715C73.6662 140.772 73.5907 140.801 73.5152 140.801Z" fill="#FEFEFE"/>
<path d="M64.9441 98.8917C64.6328 95.9826 62.3393 93.0003 59.6166 94.74C57.2488 96.2521 56.5281 100.323 58.6954 102.253C59.6177 103.074 61.1109 103.458 62.3588 103.214C64.4547 102.803 65.1553 100.864 64.9441 98.8917Z" fill="#FAAD3A"/>
<path d="M70.9546 36.9981C68.8038 36.9981 66.6466 37.0924 64.5413 37.2788C31.6934 40.1873 11.1462 58.6623 3.47144 92.1901C0.0976135 106.927 -2.79205 141.63 9.80807 154.84C23.2951 168.98 33.5623 170.554 55.4795 170.966C63.0475 171.11 69.4024 171.349 75.0089 171.561C81.5272 171.807 87.1561 172.02 92.8995 172.02C92.8995 172.02 92.9001 172.02 92.9007 172.02C97.4522 172.02 101.624 171.888 106.03 171.606L107.391 171.52C123.772 170.5 148.526 168.958 151.208 132.615C153.292 104.36 145.749 80.1195 129.394 62.5138C114.552 46.5363 92.7055 36.9981 70.9546 36.9981ZM92.9007 172.609C92.9001 172.609 92.9001 172.609 92.8995 172.609C87.1449 172.609 81.5107 172.397 74.9865 172.15C69.3829 171.939 63.031 171.699 55.4689 171.556C33.3765 171.14 23.0227 169.549 9.3817 155.247C-3.38414 141.863 -0.500369 106.896 2.89646 92.0585C10.6349 58.253 31.3579 39.6247 64.4894 36.6914C66.6112 36.5039 68.7867 36.4083 70.9546 36.4083C92.8665 36.4083 114.875 46.0173 129.826 62.1122C141.31 74.4752 154.445 96.7498 151.796 132.658C149.076 169.515 124.013 171.076 107.429 172.109L106.068 172.195C101.649 172.477 97.4646 172.609 92.9007 172.609Z" fill="#292929"/>
<path d="M101.096 51.1736C105.092 50.1309 117.865 47.6977 124.556 46.3077C131.246 44.9165 138.545 43.9612 139.501 44.3958C140.456 44.8304 129.856 58.2114 124.903 63.5118C123.252 64.6412 120.993 62.5559 120.993 62.5559C116.301 67.4217 111 69.2463 110.132 69.4203C109.263 69.5937 108.828 64.2071 108.741 60.9913C108.654 57.7767 109.225 57.1504 106.57 55.8654C98.3146 51.8677 101.096 51.1736 101.096 51.1736Z" fill="#40BDDE"/>
<path d="M110.132 69.7153C110.003 69.7153 109.883 69.6292 109.848 69.4983C109.805 69.3408 109.898 69.1787 110.055 69.1362C110.49 68.9776 112.076 66.4093 113.234 64.534C114.478 62.5183 115.653 60.6146 116.354 59.9146C117.673 58.5954 129.827 50.2985 134.986 46.8068L109.72 56.8345C109.569 56.894 109.398 56.8203 109.337 56.6694C109.277 56.5178 109.351 56.3468 109.502 56.2866L137.307 45.2516C137.453 45.1927 137.62 45.2611 137.685 45.405C137.749 45.5495 137.689 45.7187 137.548 45.7895C136.689 46.2447 118.15 58.9522 116.771 60.3316C116.119 60.9832 114.907 62.9458 113.736 64.8436C111.723 68.1042 110.78 69.549 110.21 69.7047C110.184 69.7118 110.158 69.7153 110.132 69.7153Z" fill="#292929"/>
<path d="M121.515 63.1984C121.454 63.1984 121.394 63.1801 121.341 63.1418L121.214 63.0486C119.432 61.7465 117.215 60.1212 116.695 60.3866C116.549 60.4585 116.372 60.4001 116.299 60.2545C116.226 60.1088 116.285 59.9319 116.43 59.8587C117.233 59.4583 118.823 60.57 121.562 62.5727L121.688 62.6653C121.821 62.762 121.849 62.9466 121.753 63.0775C121.695 63.1565 121.605 63.1984 121.515 63.1984Z" fill="#292929"/>
<path d="M144.191 110.75C140.85 111.056 138.952 113.132 139.287 119.038C139.622 124.946 138.283 131.044 140.625 133.329C142.966 135.617 148.872 135.618 154.335 135.712C159.797 135.807 166.87 135.647 168.965 135.617C173.897 135.545 175.652 134.689 176.321 130.829C176.715 128.557 175.77 115.742 175.736 114.394C175.652 111.036 173.479 110.606 168.714 110.392C164.145 110.187 147.313 110.464 144.191 110.75Z" fill="#FAAD3A"/>
<path d="M157.608 126.389C157.586 126.389 157.564 126.389 157.542 126.389C155.191 126.353 153.279 124.375 151.876 122.656C149.285 119.476 143.453 112.957 142.036 111.746C141.912 111.64 141.897 111.454 142.003 111.33C142.108 111.206 142.295 111.192 142.418 111.297C143.854 112.525 149.729 119.088 152.334 122.282C153.656 123.903 155.443 125.767 157.551 125.799C159.059 125.808 160.634 124.894 162.239 123.043C166.654 117.949 173.206 111.532 173.272 111.468C173.389 111.354 173.576 111.356 173.689 111.473C173.803 111.589 173.801 111.776 173.684 111.889C173.618 111.954 167.084 118.353 162.684 123.429C160.959 125.42 159.298 126.389 157.608 126.389Z" fill="#292929"/>
<path d="M140.624 133.624C140.516 133.624 140.412 133.565 140.36 133.461C140.288 133.315 140.347 133.138 140.493 133.066C141.259 132.684 145.169 128.994 148.024 126.299C150.388 124.067 151.742 122.794 152.063 122.599C152.202 122.513 152.383 122.557 152.468 122.697C152.553 122.835 152.509 123.017 152.37 123.102C152.087 123.275 150.31 124.952 148.428 126.729C144.56 130.38 141.539 133.204 140.756 133.593C140.713 133.615 140.669 133.624 140.624 133.624Z" fill="#292929"/>
<path d="M173.954 134.577C173.854 134.577 173.755 134.525 173.7 134.432C173.512 134.112 171.315 131.732 169.191 129.431C166.387 126.394 163.488 123.253 163.049 122.557C162.963 122.419 163.004 122.237 163.141 122.15C163.28 122.063 163.461 122.106 163.548 122.242C163.958 122.893 166.969 126.154 169.625 129.031C172.33 131.962 173.999 133.776 174.209 134.133C174.291 134.274 174.244 134.454 174.103 134.537C174.057 134.564 174.005 134.577 173.954 134.577Z" fill="#292929"/>
<path d="M279.821 36.2753C278.199 29.395 263.259 20.5496 256.87 23.007C250.482 25.4638 258.639 28.314 258.639 28.314C248.811 26.5448 244.093 27.7237 243.11 30.1817C242.127 32.6385 246.255 33.6215 246.255 33.6215C239.572 33.8179 232.102 39.0276 233.183 42.6638C234.264 46.3007 238.687 44.9738 238.687 44.9738C232.396 50.0354 233.423 55.1832 239.986 54.5751C233.085 59.7659 232.103 69.3001 234.756 72.7399C237.409 76.1804 239.985 70.9731 239.985 70.9731C237.213 78.6372 241.34 83.6499 245.272 77.2614C244.388 86.0088 252.152 87.1883 254.61 82.8638C256.969 91.2185 262.571 89.9405 263.554 85.8124C266.601 89.6457 272.596 88.3677 273.776 84.2396C277.118 88.1713 280.066 84.5834 279.772 81.5369C283.211 85.5665 288.618 86.0578 289.698 78.7357C294.613 82.3725 297.07 82.2741 295.743 73.5756C303.95 76.5732 308.275 67.4324 298.839 59.5696C305.13 61.2402 304.442 54.7532 295.448 50.8711C301.788 50.7236 302.574 46.3986 299.429 43.2046C296.284 40.0101 290.976 33.8179 279.821 36.2753Z" fill="#292929"/>
<path d="M248.582 53.064C247.622 58.8251 249.329 60.5335 251.036 64.5879C252.744 68.6423 250.356 72.9148 254.904 77.9777C259.145 82.699 265.547 82.4059 265.547 82.4059L267.361 89.7681L283.046 85.7131L279.632 70.9357C279.632 70.9357 282.832 69.176 281.872 62.88C280.912 56.5847 280.805 41.0076 265.547 43.3547C250.289 45.7013 249.97 48.4754 248.582 53.064Z" fill="#FEFEFE"/>
<path d="M265.547 82.1115C265.682 82.1115 265.801 82.2035 265.833 82.3356L267.575 89.4082L282.694 85.5001L279.344 71.0028C279.315 70.8743 279.374 70.7416 279.489 70.6779C279.518 70.662 282.494 68.914 281.58 62.9248C281.482 62.279 281.392 61.5348 281.294 60.7227C280.514 54.2481 279.209 43.4113 268.498 43.4113C267.585 43.4113 266.607 43.4903 265.592 43.6466C251.033 45.8858 250.269 48.4469 249.002 52.69L248.864 53.1494C248.115 57.6579 249.041 59.6087 250.322 62.3079C250.642 62.9808 250.972 63.6761 251.308 64.474C251.965 66.0344 252.033 67.5877 252.105 69.2325C252.222 71.9128 252.343 74.6851 255.124 77.7812C258.829 81.9057 264.271 82.1145 265.324 82.1145C265.608 82.1145 265.538 82.1115 265.547 82.1115ZM267.361 90.0634C267.308 90.0634 267.256 90.0493 267.21 90.0216C267.142 89.9815 267.093 89.916 267.075 89.8393L265.317 82.7042C264.203 82.7036 258.549 82.4766 254.685 78.1751C251.763 74.9216 251.631 71.9128 251.516 69.2578C251.446 67.6679 251.38 66.1659 250.764 64.7028C250.434 63.9173 250.106 63.2279 249.79 62.5609C248.512 59.8694 247.503 57.744 248.291 53.0162L248.437 52.5214C249.77 48.0554 250.575 45.3597 265.502 43.0639C266.547 42.9029 267.555 42.8215 268.498 42.8215C279.732 42.8215 281.076 53.9833 281.88 60.6519C281.976 61.4575 282.065 62.1953 282.163 62.8363C283.017 68.434 280.674 70.5647 279.965 71.0707L283.333 85.647C283.369 85.8026 283.274 85.9589 283.119 85.999L267.434 90.054C267.41 90.0605 267.385 90.0634 267.361 90.0634Z" fill="#292929"/>
<path d="M285.494 57.5031C284.962 54.2879 284.308 51.2467 282.647 48.3818C281.622 46.6156 280.696 44.7974 278.964 43.6203C274.097 40.3126 267.542 40.5107 262.004 41.6595C257.605 42.5724 252.708 44.131 249.3 47.1634C248.167 48.1707 243.58 52.744 246.551 54.065C248.29 54.8393 250.207 53.1969 251.52 52.0888C251.579 52.2557 251.672 52.435 251.809 52.6402C252.693 53.9671 254.905 54.1145 256.379 53.8197C260.212 53.23 263.898 50.7236 266.699 47.9224C266.109 48.807 265.372 49.9865 265.667 51.1659C266.257 52.4928 267.584 52.6402 268.763 52.6402C271.27 52.4928 273.628 50.4287 275.398 48.807C273.923 51.6082 272.302 54.4094 272.154 57.6529C272.007 59.1272 272.154 60.749 272.744 62.0759C273.481 63.845 275.103 63.845 276.577 62.813C275.84 65.1719 275.398 67.3834 276.43 69.7423C277.045 71.1482 278.985 73.5266 281.688 73.0348C283.847 72.6426 284.247 67.5786 285.03 65.8106C286.49 62.5117 286.089 61.0946 285.494 57.5031Z" fill="#292929"/>
<path d="M245.626 55.1241C244.306 55.1241 243.029 54.6547 242.673 53.316C242.466 52.5382 242.589 51.5958 242.774 50.9724C243.131 49.7588 244.234 48.0409 245.232 47.1433C245.351 47.0342 245.538 47.0437 245.648 47.1652C245.756 47.2861 245.747 47.473 245.626 47.5815C244.713 48.4036 243.665 50.033 243.339 51.1399C243.177 51.686 243.067 52.5045 243.244 53.1645C243.687 54.8281 246.036 54.5385 246.503 54.4624C247.901 54.2372 248.938 53.9169 249.765 53.454C249.907 53.3756 250.087 53.4257 250.167 53.5678C250.247 53.71 250.196 53.8898 250.053 53.9688C249.164 54.4666 248.065 54.808 246.596 55.0445C246.279 55.0958 245.951 55.1241 245.626 55.1241Z" fill="#FEFEFE"/>
<path d="M261.189 72.4437C261.183 72.4437 261.178 72.4437 261.173 72.4431C259.233 72.3358 258.02 71.8876 257.466 71.072C256.777 70.0588 257.217 68.7367 257.643 67.4581C257.726 67.2087 257.809 66.9598 257.882 66.7163C258.536 64.5366 257.039 61.9059 255.372 60.3838C254.056 59.1825 252.378 58.9566 251.3 59.2651C250.688 59.4402 250.268 59.7852 250.147 60.2128C250.102 60.369 249.943 60.4604 249.783 60.4168C249.626 60.372 249.536 60.2092 249.579 60.0523C249.757 59.4237 250.324 58.9301 251.138 58.6977C252.375 58.3439 254.286 58.5939 255.769 59.9486C257.629 61.6458 259.177 64.4488 258.446 66.8855C258.372 67.135 258.287 67.3891 258.202 67.6445C257.822 68.7868 257.429 69.9686 257.953 70.74C258.391 71.3845 259.486 71.759 261.205 71.8546C261.368 71.8634 261.492 72.0026 261.483 72.1653C261.475 72.3222 261.344 72.4437 261.189 72.4437Z" fill="#292929"/>
<path d="M260.287 59.4097C260.222 59.4097 260.157 59.3885 260.103 59.346C259.976 59.2446 259.955 59.0589 260.055 58.9315C261.085 57.6311 264.067 54.9408 269.5 58.0339C269.641 58.1141 269.691 58.294 269.611 58.4361C269.53 58.577 269.349 58.6266 269.209 58.5464C264.354 55.7835 261.681 57.831 260.518 59.2977C260.459 59.3714 260.373 59.4097 260.287 59.4097Z" fill="#292929"/>
<path d="M267.214 63.9679C267.707 64.8896 267.684 65.8656 267.158 66.1469C266.634 66.4294 265.806 65.9104 265.311 64.9881C264.817 64.0681 264.843 63.0921 265.366 62.8114C265.892 62.5295 266.719 63.0467 267.214 63.9679Z" fill="#292929"/>
<path d="M265.728 63.2504C265.681 63.2504 265.633 63.2392 265.589 63.2162L263.92 62.3269C263.776 62.2503 263.722 62.0716 263.798 61.9283C263.875 61.7838 264.055 61.7313 264.197 61.8062L265.867 62.6955C266.01 62.7722 266.065 62.9503 265.988 63.0942C265.935 63.1938 265.833 63.2504 265.728 63.2504Z" fill="#292929"/>
<path d="M256.091 64.9282C256.584 65.8494 256.561 66.8254 256.035 67.1073C255.511 67.3891 254.683 66.8702 254.189 65.9478C253.693 65.0279 253.719 64.0519 254.244 63.7712C254.77 63.4893 255.596 64.0059 256.091 64.9282Z" fill="#292929"/>
<path d="M254.605 64.2098C254.558 64.2098 254.511 64.1986 254.466 64.1756L252.797 63.2863C252.654 63.2097 252.599 63.031 252.675 62.8871C252.752 62.7432 252.931 62.6901 253.075 62.7656L254.744 63.6549C254.887 63.7316 254.942 63.9097 254.866 64.0535C254.813 64.1532 254.711 64.2098 254.605 64.2098Z" fill="#292929"/>
<path d="M260.041 73.9977C260.984 75.8311 262.109 76.8708 263.17 76.8708C264.691 76.8708 265.896 74.7914 266.308 71.5185C262.611 73.8709 261.374 74.092 260.041 73.9977ZM263.17 77.4606C261.763 77.4606 260.381 76.1543 259.279 73.7818C259.234 73.6857 259.244 73.5731 259.306 73.4864C259.367 73.4003 259.468 73.3537 259.575 73.3637C259.877 73.3938 260.189 73.425 260.495 73.425C261.634 73.425 262.982 72.9774 266.507 70.6893C266.602 70.6274 266.723 70.6262 266.82 70.684C266.917 70.7424 266.972 70.8509 266.961 70.9635C266.593 74.9713 265.14 77.4606 263.17 77.4606Z" fill="#292929"/>
<path d="M262.347 77.2321C262.321 77.2321 262.295 77.2292 262.269 77.2221C262.112 77.1791 262.019 77.0169 262.062 76.8594C262.582 74.954 264.698 73.5304 266.091 73.6124C266.254 73.623 266.377 73.7628 266.367 73.9255C266.357 74.0877 266.231 74.2115 266.054 74.2015C264.869 74.1254 263.069 75.4122 262.631 77.0151C262.595 77.146 262.476 77.2321 262.347 77.2321Z" fill="#292929"/>
<path d="M226.897 127.351C229.697 124.631 243.061 106.946 248.262 100.624C253.464 94.3021 259.465 94.1423 267.628 94.062C265.618 86.0087 266.152 85.8306 266.552 85.9102C266.952 85.9904 274.577 87.6541 282.18 82.3719C284.195 81.8317 284.113 89.9015 286.033 90.9412C287.953 91.9821 300.757 89.3407 307.079 95.6632C313.401 101.984 317.802 116.949 317.802 116.949C314.361 122.47 290.994 139.834 261.626 131.833C261.066 129.352 257.065 125.51 255.865 120.63C250.903 127.112 247.382 131.913 247.382 131.913C247.382 131.913 231.618 130.872 226.897 127.351Z" fill="#FAAD3A"/>
<path d="M273.752 96.4876C270.537 96.4876 268.296 95.1872 267.415 94.2661C267.302 94.1481 267.307 93.9618 267.425 93.8491C267.542 93.7365 267.728 93.7412 267.841 93.8586C269.494 95.587 276.278 98.6925 285.437 90.5614C285.559 90.4529 285.746 90.4635 285.853 90.5862C285.962 90.7076 285.951 90.894 285.829 91.0025C281.094 95.2067 276.942 96.4876 273.752 96.4876Z" fill="#292929"/>
<path d="M272.056 96.412C271.93 96.412 271.813 96.33 271.774 96.2027C271.668 95.8518 269.153 87.5897 268.888 86.4191C268.852 86.2604 268.952 86.1024 269.111 86.0664C269.27 86.0305 269.427 86.1301 269.463 86.2888C269.724 87.4381 272.312 95.9455 272.339 96.031C272.386 96.1867 272.298 96.3519 272.143 96.399C272.114 96.4079 272.085 96.412 272.056 96.412Z" fill="#292929"/>
<path d="M275.523 96.3582C275.398 96.3582 275.281 96.2774 275.241 96.1512L272.148 86.2821C272.099 86.127 272.186 85.9613 272.341 85.9124C272.496 85.8652 272.662 85.9507 272.711 86.1058L275.805 95.9749C275.853 96.1306 275.767 96.2957 275.611 96.3446C275.582 96.3535 275.553 96.3582 275.523 96.3582Z" fill="#292929"/>
<path d="M279.151 95.2911C279.027 95.2911 278.912 95.212 278.871 95.0882L275.777 85.6455C275.726 85.491 275.81 85.3241 275.965 85.2734C276.117 85.2226 276.286 85.3076 276.338 85.4621L279.432 94.9042C279.483 95.0593 279.398 95.2256 279.243 95.2763C279.212 95.2863 279.182 95.2911 279.151 95.2911Z" fill="#292929"/>
<path d="M282.46 93.584C282.332 93.584 282.215 93.5009 282.177 93.3723L279.562 84.517C279.516 84.3607 279.605 84.1968 279.761 84.1508C279.917 84.1036 280.081 84.1932 280.128 84.3501L282.742 93.2054C282.788 93.3617 282.699 93.5257 282.543 93.5717C282.515 93.5799 282.487 93.584 282.46 93.584Z" fill="#292929"/>
<path d="M265.632 82.756C265.601 82.756 265.57 82.7554 265.539 82.7548C265.377 82.7513 265.248 82.6156 265.252 82.4529C265.256 82.2901 265.374 82.1645 265.554 82.1651C267.644 82.2382 273.259 80.4036 276.841 75.9789C276.944 75.8521 277.13 75.8332 277.256 75.9352C277.383 76.0378 277.402 76.2236 277.3 76.3498C273.641 80.8683 267.88 82.756 265.632 82.756Z" fill="#292929"/>
<path d="M256.985 123.886C256.871 123.886 256.764 123.82 256.715 123.71C254.762 119.269 254.61 114.839 254.61 113.588C254.61 113.425 254.742 113.293 254.905 113.293C255.067 113.293 255.2 113.425 255.2 113.588C255.2 114.459 255.299 119.025 257.255 123.472C257.321 123.621 257.252 123.795 257.104 123.861C257.065 123.878 257.025 123.886 256.985 123.886Z" fill="#292929"/>
<path d="M299.958 129.487C299.83 129.487 299.712 129.403 299.674 129.275C299.648 129.185 297.022 120.198 295.916 116.8C295.865 116.646 295.95 116.479 296.104 116.429C296.262 116.379 296.426 116.464 296.476 116.618C297.586 120.023 300.214 129.019 300.24 129.109C300.286 129.266 300.196 129.429 300.04 129.475C300.012 129.483 299.984 129.487 299.958 129.487Z" fill="#292929"/>
<path d="M280.622 73.5533C279.708 73.5533 278.653 73.2501 277.522 72.6575C277.377 72.582 277.322 72.4039 277.397 72.2594C277.473 72.1143 277.653 72.0601 277.795 72.135C279.142 72.8403 280.349 73.1039 281.28 72.8951C283.473 72.3962 284.384 68.553 284.384 66.6063C284.384 66.4801 284.465 66.3674 284.584 66.3267C284.703 66.2866 284.836 66.3267 284.913 66.4264C285.916 67.7309 287.096 68.3389 288.627 68.3389C290.121 68.2386 291.564 66.5856 291.75 65.2847C291.774 65.1237 291.926 65.0093 292.083 65.0347C292.244 65.0577 292.357 65.2068 292.334 65.3684C292.113 66.9159 290.454 68.8077 288.647 68.928C288.646 68.928 288.645 68.928 288.645 68.928C287.169 68.928 285.955 68.415 284.942 67.3629C284.739 69.7766 283.602 72.9724 281.409 73.4701C281.161 73.5255 280.898 73.5533 280.622 73.5533Z" fill="#FEFEFE"/>
<path d="M257.846 0.589728C247.814 0.589728 236.477 1.90718 224.152 4.50493C198.098 9.99765 171.648 20.5078 173.019 56.8173C174.412 93.7118 188.025 115.676 214.637 123.967C226.853 127.773 247.871 131.614 267.288 131.615C267.29 131.615 267.293 131.615 267.295 131.615C284.802 131.615 307.213 128.545 314.57 113.919C321.977 99.1957 323.256 82.2363 323.026 70.6016C322.76 57.2484 320.295 43.6923 316.591 35.2238C312.447 25.7516 301.44 0.589728 257.846 0.589728ZM267.295 132.205C267.292 132.205 267.291 132.205 267.288 132.205C246.475 132.204 225.823 128.07 214.462 124.53C187.582 116.156 173.833 94.0144 172.429 56.8397C171.778 39.5625 177.672 26.2175 189.951 17.1752C200.115 9.68981 212.882 6.27824 224.03 3.92818C236.395 1.32158 247.772 0 257.846 0C276.012 0 290.555 4.28791 301.071 12.7434C309.724 19.701 314.199 28.2857 317.131 34.9874C320.864 43.5225 323.349 57.1646 323.615 70.5898C323.847 82.2912 322.558 99.3526 315.096 114.184C307.605 129.077 284.968 132.205 267.295 132.205Z" fill="#292929"/>
<path d="M198.803 30.5442H175.686C171.667 30.5442 168.597 34.0006 168.842 38.1788L169.465 48.7998C169.692 52.6708 172.935 55.7067 176.695 55.6495L193.421 55.3977C194.295 57.9931 194.934 60.5183 196.607 60.395C197.804 60.2777 198.317 57.7454 198.657 55.3027C202.166 55.0851 205.055 52.0952 205.186 48.4088L205.563 38.0119C205.711 33.9233 202.692 30.5442 198.803 30.5442Z" fill="#FEFEFE"/>
<path d="M193.422 55.1027C193.548 55.1027 193.66 55.1829 193.701 55.3038C193.788 55.5627 193.873 55.8216 193.957 56.077C194.685 58.2932 195.325 60.1986 196.585 60.1013C197.706 59.991 198.185 56.5552 198.366 55.2614C198.385 55.1228 198.5 55.0166 198.639 55.0084C202.02 54.7985 204.767 51.8952 204.892 48.3981L205.268 38.0012C205.339 36.0363 204.631 34.132 203.325 32.778C202.119 31.5278 200.514 30.839 198.803 30.839H175.686C173.897 30.839 172.234 31.5567 171.005 32.86C169.702 34.2429 169.02 36.1754 169.137 38.1616L169.76 48.7826C169.972 52.4065 173.036 55.3552 176.59 55.3552L176.69 55.3546L193.417 55.1027C193.419 55.1027 193.42 55.1027 193.422 55.1027ZM196.491 60.6945C194.852 60.6945 194.178 58.6393 193.397 56.261C193.336 56.0734 193.274 55.8847 193.21 55.6954L176.59 55.9449C172.664 55.9449 169.406 52.814 169.171 48.8174L168.548 38.1964C168.422 36.0487 169.161 33.9557 170.576 32.4554C171.918 31.0324 173.732 30.2493 175.686 30.2493H198.803C200.675 30.2493 202.431 31.0018 203.749 32.3687C205.166 33.8372 205.934 35.8983 205.858 38.0225L205.482 48.4194C205.349 52.1329 202.486 55.2301 198.917 55.5775C198.542 58.1823 197.993 60.5554 196.636 60.6886C196.583 60.6928 196.536 60.6945 196.491 60.6945Z" fill="#292929"/>
<path d="M180.139 43.4218C180.139 44.7033 179.124 45.7424 177.873 45.7424C176.621 45.7424 175.606 44.7033 175.606 43.4218C175.606 42.1397 176.621 41.1012 177.873 41.1012C179.124 41.1012 180.139 42.1397 180.139 43.4218Z" fill="#40BDDE"/>
<path d="M189.099 43.4218C189.099 44.7033 188.084 45.7424 186.832 45.7424C185.581 45.7424 184.566 44.7033 184.566 43.4218C184.566 42.1397 185.581 41.1012 186.832 41.1012C188.084 41.1012 189.099 42.1397 189.099 43.4218Z" fill="#40BDDE"/>
<path d="M198.058 43.4219C198.058 44.7034 197.044 45.7425 195.792 45.7425C194.54 45.7425 193.525 44.7034 193.525 43.4219C193.525 42.1398 194.54 41.1013 195.792 41.1013C197.044 41.1013 198.058 42.1398 198.058 43.4219Z" fill="#40BDDE"/>
<path d="M273.154 230.266H250.2C250.038 230.266 249.906 230.135 249.906 229.971C249.906 229.809 250.038 229.677 250.2 229.677H273.154C273.317 229.677 273.449 229.809 273.449 229.971C273.449 230.135 273.317 230.266 273.154 230.266Z" fill="#292929"/>
<path d="M205.318 146.718C198.516 143.438 197.236 136.075 207.158 133.274C200.196 124.712 207.238 119.751 211.96 118.79C216.681 117.83 226.044 120.231 235.086 127.993C244.129 135.755 248.05 136.155 250.771 142.237C253.492 148.319 252.211 153.04 249.49 159.202C246.769 165.364 246.449 167.284 251.731 172.245C257.012 177.207 261.333 182.169 257.653 191.531C253.972 200.894 209.959 197.453 207.878 191.051C205.798 184.649 210.759 161.202 210.759 161.202L205.318 146.718Z" fill="#292929"/>
<path d="M200.277 185.049C199.236 180.488 200.444 170.015 209.559 164.803C216.207 161.001 219.722 166.324 219.722 166.324L220.763 183.849C220.763 183.849 202.517 185.129 200.277 185.049Z" fill="#292929"/>
<path d="M149.062 158.722C148.262 157.601 147.064 156.068 145.943 156.869C144.823 157.669 146.607 164.167 151.623 163.363C150.342 161.443 149.062 158.722 149.062 158.722Z" fill="#FEFEFE"/>
<path d="M146.6 156.941C146.431 156.941 146.273 156.996 146.115 157.109C145.896 157.265 145.793 158.108 146.169 159.282C146.766 161.145 148.291 163.136 150.782 163.136H150.783C150.893 163.136 151.005 163.132 151.117 163.125C149.93 161.25 148.807 158.872 148.795 158.847C148.405 158.309 147.428 156.941 146.6 156.941ZM150.783 163.726H150.782C147.971 163.726 146.237 161.429 145.607 159.462C145.281 158.442 145.129 157.088 145.773 156.628C146.03 156.444 146.309 156.351 146.6 156.351C147.595 156.351 148.486 157.408 149.302 158.55C149.342 158.623 150.615 161.32 151.869 163.199C151.925 163.282 151.934 163.389 151.893 163.481C151.853 163.573 151.769 163.638 151.67 163.654C151.37 163.702 151.072 163.726 150.783 163.726Z" fill="#292929"/>
<path d="M163.226 159.442C160.505 158.561 158.744 156.401 159.625 154.64C160.505 152.88 163.386 155.2 165.387 156.801C167.387 158.401 169.308 158.721 169.308 158.721C169.308 158.721 166.347 160.242 163.226 159.442Z" fill="#FEFEFE"/>
<path d="M160.633 154.305C160.285 154.305 160.048 154.454 159.889 154.772C159.628 155.292 159.624 155.86 159.875 156.459C160.35 157.593 161.669 158.628 163.316 159.161C163.877 159.304 164.493 159.38 165.13 159.38C166.469 159.38 167.658 159.048 168.395 158.782C167.623 158.527 166.431 158.014 165.202 157.031C163.742 155.863 161.794 154.305 160.633 154.305ZM165.13 159.969C164.443 159.969 163.779 159.888 163.153 159.728C161.329 159.138 159.871 157.974 159.331 156.688C159.015 155.933 159.026 155.18 159.361 154.508C159.621 153.989 160.061 153.715 160.633 153.715C162.001 153.715 163.959 155.282 165.533 156.54C167.482 158.099 169.338 158.428 169.357 158.431C169.482 158.452 169.579 158.551 169.599 158.677C169.618 158.802 169.555 158.926 169.443 158.983C169.364 159.024 167.495 159.969 165.13 159.969Z" fill="#292929"/>
<path d="M166.08 184.009C165.867 179.314 165.334 169.925 164.587 166.937C163.839 163.95 159.144 164.802 158.824 164.696C158.505 164.59 152.663 166.804 149.782 160.962C146.901 155.12 149.222 152.959 150.822 153.519C151.382 151.599 152.983 152.159 153.863 153.12C154.664 151.439 156.984 153.2 157.544 155.36C158.104 157.521 158.664 159.441 163.145 158.881C167.627 158.321 173.148 157.041 175.309 163.522C177.47 170.005 179.231 180.087 179.231 180.087C179.231 180.087 178.377 186.49 166.08 184.009Z" fill="#FEFEFE"/>
<path d="M166.364 183.765C168.137 184.111 169.765 184.286 171.209 184.286C177.918 184.286 178.847 180.52 178.931 180.088C178.793 179.311 177.08 169.769 175.029 163.616C173.573 159.247 170.573 158.687 168.122 158.687C166.827 158.687 165.485 158.867 164.188 159.042C163.848 159.088 163.512 159.132 163.182 159.174C162.647 159.241 162.15 159.275 161.702 159.275C158.255 159.275 157.726 157.234 157.259 155.435C156.866 153.92 155.622 152.745 154.814 152.745C154.514 152.745 154.29 152.909 154.129 153.246C154.087 153.335 154.003 153.397 153.906 153.411C153.808 153.426 153.712 153.392 153.645 153.319C153.201 152.834 152.638 152.533 152.175 152.533C151.672 152.533 151.312 152.893 151.105 153.602C151.082 153.68 151.029 153.745 150.957 153.782C150.885 153.819 150.8 153.824 150.725 153.798C150.146 153.597 149.498 153.862 149.122 154.467C148.751 155.065 148.098 156.88 150.046 160.832C151.321 163.416 153.356 164.726 156.097 164.726C157.05 164.726 157.852 164.566 158.331 164.471C158.558 164.425 158.694 164.398 158.792 164.398C158.823 164.398 158.887 164.406 158.917 164.416C159.027 164.411 159.148 164.405 159.299 164.397C159.56 164.383 159.904 164.366 160.293 164.366C162.917 164.366 164.458 165.207 164.873 166.866C165.675 170.075 166.205 180.323 166.364 183.765ZM171.209 184.875C169.665 184.875 167.92 184.681 166.022 184.299C165.889 184.271 165.792 184.158 165.785 184.023C165.641 180.848 165.108 170.241 164.301 167.009C163.96 165.647 162.611 164.955 160.293 164.955C159.916 164.955 159.582 164.973 159.33 164.986C159.037 165.001 158.876 165.007 158.776 164.988C158.713 164.993 158.6 165.019 158.446 165.049C157.946 165.149 157.108 165.316 156.097 165.316C153.155 165.316 150.88 163.856 149.518 161.092C147.513 157.027 148.095 155.001 148.621 154.156C149.084 153.411 149.865 153.033 150.63 153.166C151.036 152.11 151.76 151.944 152.175 151.944C152.709 151.944 153.299 152.203 153.807 152.652C154.063 152.329 154.411 152.155 154.814 152.155C155.988 152.155 157.397 153.619 157.829 155.286C158.302 157.11 158.711 158.685 161.702 158.685C162.125 158.685 162.598 158.653 163.109 158.589C163.437 158.548 163.771 158.503 164.109 158.458C165.426 158.28 166.787 158.097 168.122 158.097C170.564 158.097 173.996 158.65 175.589 163.429C177.732 169.858 179.504 179.935 179.521 180.037C179.526 180.066 179.527 180.097 179.522 180.127C179.516 180.174 178.801 184.875 171.209 184.875Z" fill="#292929"/>
<path d="M152.062 164.093C151.998 164.093 151.935 164.073 151.882 164.032C150.069 162.632 148.868 160.539 148.309 157.813C148.276 157.653 148.378 157.498 148.538 157.464C148.7 157.432 148.853 157.535 148.886 157.694C149.416 160.278 150.545 162.254 152.242 163.565C152.371 163.665 152.395 163.849 152.295 163.979C152.237 164.054 152.15 164.093 152.062 164.093Z" fill="#292929"/>
<path d="M159.625 163.018C159.621 163.018 159.616 163.018 159.612 163.018C157.964 162.946 156.599 162.241 155.555 160.922C153.558 158.399 153.332 154.334 153.573 153.064C153.603 152.905 153.756 152.798 153.918 152.83C154.078 152.86 154.183 153.015 154.152 153.175C153.933 154.328 154.165 158.216 156.017 160.556C156.95 161.735 158.168 162.365 159.638 162.428C159.8 162.436 159.926 162.573 159.919 162.735C159.912 162.894 159.782 163.018 159.625 163.018Z" fill="#292929"/>
<path d="M156.505 165.178C156.496 165.178 156.488 165.178 156.48 165.177C154.939 165.048 153.654 164.331 152.659 163.043C150.305 159.995 150.318 154.697 150.532 153.47C150.56 153.309 150.712 153.199 150.873 153.23C151.034 153.257 151.141 153.41 151.113 153.57C150.909 154.742 150.892 159.79 153.126 162.682C154.015 163.834 155.16 164.476 156.529 164.59C156.691 164.603 156.812 164.746 156.798 164.908C156.785 165.062 156.656 165.178 156.505 165.178Z" fill="#292929"/>
<path d="M211.961 189.29C214.601 190.49 222.283 193.211 236.207 189.69C235.727 199.293 234.767 219.539 234.767 219.539C234.767 219.539 223.164 226.101 215.401 223.38C213.241 219.699 211.961 189.29 211.961 189.29Z" fill="#292929"/>
<path d="M214.337 181.692C216.657 181.372 219.162 180.488 218.921 176.647C218.681 172.806 218.042 167.764 218.042 167.764C212.04 167.685 206.118 164.563 203.397 158.402C200.676 152.24 204.277 149.039 206.278 142.637C208.279 136.236 212.04 130.954 220.442 131.514C228.845 132.074 233.326 136.075 233.326 136.075C231.885 143.597 230.445 154.241 233.566 154.881C236.686 155.521 237.487 150 237.487 150C242.209 147.679 247.154 150.503 245.249 154.64C242.929 159.682 237.407 157.121 237.407 157.121C236.287 160.002 231.566 163.203 231.566 163.203C232.286 169.125 233.002 178.921 237.484 179.48C235.643 188.843 234.687 192.251 234.687 192.251C234.687 192.251 218.602 196.173 212.76 190.411C213 188.411 214.337 181.692 214.337 181.692Z" fill="#FEFEFE"/>
<path d="M213.071 190.302C215.145 192.265 218.718 193.259 223.694 193.259C228.684 193.259 233.497 192.221 234.448 192.004C234.655 191.222 235.575 187.634 237.135 179.719C233.07 178.827 232.141 170.756 231.458 164.823C231.395 164.273 231.334 163.741 231.273 163.238C231.259 163.128 231.308 163.021 231.4 162.958C231.446 162.928 236.058 159.775 237.132 157.014C237.161 156.938 237.221 156.878 237.297 156.847C237.372 156.817 237.457 156.82 237.53 156.853C237.544 156.86 238.898 157.476 240.497 157.476C242.568 157.476 244.078 156.481 244.981 154.517C245.529 153.327 245.505 152.209 244.911 151.283C244.179 150.14 242.695 149.459 240.94 149.459C239.885 149.459 238.786 149.713 237.753 150.199C237.6 151.081 236.738 155.227 234.058 155.227C233.878 155.227 233.692 155.208 233.506 155.17C230.877 154.63 230.708 148.244 233.003 136.19C232.223 135.561 227.854 132.304 220.422 131.808C213.441 131.344 209.037 134.796 206.56 142.725C205.986 144.559 205.269 146.162 204.638 147.576C203.036 151.16 201.771 153.99 203.666 158.282C206.132 163.864 211.641 167.384 218.045 167.469C218.192 167.471 218.315 167.58 218.334 167.727C218.34 167.777 218.978 172.821 219.215 176.628C219.468 180.664 216.757 181.621 214.585 181.953C214.366 183.064 213.321 188.389 213.071 190.302ZM223.694 193.849C218.473 193.849 214.724 192.762 212.553 190.621C212.488 190.556 212.456 190.466 212.467 190.376C212.705 188.387 213.993 181.909 214.047 181.634C214.072 181.51 214.172 181.417 214.296 181.4C216.564 181.086 218.853 180.279 218.627 176.665C218.421 173.363 217.912 169.123 217.78 168.053C211.252 167.875 205.653 164.241 203.127 158.521C201.126 153.988 202.437 151.053 204.099 147.336C204.755 145.868 205.433 144.35 205.996 142.549C208.532 134.432 213.251 130.738 220.461 131.22C228.868 131.78 233.336 135.689 233.521 135.855C233.599 135.924 233.635 136.029 233.615 136.13C231.453 147.418 231.457 154.147 233.625 154.592C233.772 154.622 233.918 154.638 234.058 154.638C236.488 154.638 237.188 150.004 237.195 149.957C237.209 149.86 237.27 149.778 237.356 149.735C238.509 149.169 239.748 148.869 240.94 148.869C242.897 148.869 244.567 149.652 245.408 150.964C246.104 152.053 246.143 153.402 245.517 154.763C244.26 157.493 242.093 158.066 240.497 158.066C239.195 158.066 238.069 157.699 237.564 157.505C236.374 160.097 232.682 162.782 231.879 163.344C231.933 163.795 231.988 164.268 232.044 164.756C232.722 170.642 233.649 178.704 237.52 179.187C237.601 179.198 237.674 179.241 237.722 179.307C237.77 179.373 237.789 179.456 237.772 179.537C235.951 188.805 234.98 192.297 234.97 192.331C234.941 192.433 234.86 192.513 234.756 192.538C234.702 192.551 229.311 193.849 223.694 193.849Z" fill="#292929"/>
<path d="M212.44 154.855C212.39 154.855 212.34 154.843 212.294 154.817C210.605 153.855 209.72 152.912 209.588 151.935C209.424 150.721 210.407 149.735 211.359 148.781C211.545 148.595 211.73 148.409 211.905 148.223C213.462 146.565 213.297 143.543 212.484 141.436C212.136 140.533 211.548 139.998 210.737 139.846C209.666 139.65 208.511 140.179 207.964 140.782C207.854 140.902 207.668 140.911 207.547 140.802C207.426 140.692 207.418 140.506 207.527 140.385C208.198 139.647 209.552 139.029 210.845 139.267C211.55 139.398 212.503 139.844 213.035 141.224C213.941 143.572 214.076 146.773 212.334 148.627C212.156 148.817 211.967 149.006 211.776 149.198C210.926 150.05 210.048 150.932 210.172 151.856C210.277 152.628 211.088 153.451 212.585 154.305C212.727 154.385 212.776 154.565 212.696 154.706C212.641 154.802 212.542 154.855 212.44 154.855Z" fill="#292929"/>
<path d="M226.897 144.88C226.802 144.88 226.709 144.834 226.653 144.749C223.541 140.108 220.235 140.747 218.54 141.544C218.394 141.613 218.218 141.55 218.147 141.402C218.078 141.255 218.142 141.079 218.29 141.01C219.792 140.306 223.662 139.228 227.142 144.421C227.233 144.556 227.197 144.739 227.061 144.83C227.011 144.864 226.954 144.88 226.897 144.88Z" fill="#292929"/>
<path d="M222.146 149.075C221.835 150.073 221.12 150.74 220.551 150.563C219.983 150.385 219.775 149.431 220.086 148.433C220.397 147.434 221.112 146.768 221.679 146.947C222.249 147.125 222.458 148.076 222.146 149.075Z" fill="#292929"/>
<path d="M221.829 147.6C221.702 147.6 221.584 147.517 221.547 147.389L221.012 145.575C220.966 145.418 221.056 145.255 221.212 145.209C221.37 145.163 221.533 145.251 221.578 145.408L222.112 147.222C222.158 147.378 222.069 147.542 221.913 147.588C221.885 147.596 221.857 147.6 221.829 147.6Z" fill="#292929"/>
<path d="M210.49 146.888C210.178 147.886 209.464 148.552 208.895 148.375C208.327 148.197 208.118 147.243 208.429 146.245C208.741 145.246 209.456 144.581 210.024 144.76C210.592 144.937 210.802 145.889 210.49 146.888Z" fill="#292929"/>
<path d="M210.173 145.413C210.046 145.413 209.928 145.33 209.89 145.201L209.357 143.387C209.311 143.23 209.4 143.067 209.557 143.021C209.711 142.974 209.877 143.063 209.922 143.22L210.456 145.035C210.502 145.191 210.413 145.355 210.257 145.401C210.228 145.409 210.201 145.413 210.173 145.413Z" fill="#292929"/>
<path d="M210.402 156.573C210.395 158.088 210.669 159.173 211.202 159.73C212.324 160.901 214.821 159.704 217.492 156.889C214.636 157.448 211.764 157.285 210.402 156.573ZM212.323 160.775C211.701 160.775 211.18 160.561 210.775 160.137C210.059 159.389 209.739 158.002 209.826 156.015C209.83 155.901 209.902 155.799 210.007 155.756C210.113 155.712 210.234 155.733 210.319 155.81C210.742 156.197 211.982 156.647 214.085 156.647C215.398 156.647 216.844 156.464 218.265 156.115C218.393 156.084 218.522 156.139 218.588 156.248C218.655 156.359 218.642 156.499 218.557 156.596C216.223 159.252 213.951 160.775 212.323 160.775Z" fill="#292929"/>
<path d="M211.08 160.244C211.03 160.244 210.98 160.231 210.934 160.204C210.792 160.123 210.743 159.943 210.825 159.802C211.518 158.595 214.335 157.843 216.016 158.413C216.17 158.465 216.254 158.633 216.201 158.786C216.149 158.941 215.98 159.023 215.827 158.972C214.305 158.455 211.85 159.201 211.336 160.096C211.281 160.191 211.182 160.244 211.08 160.244Z" fill="#292929"/>
<path d="M217.916 168.086C217.743 168.084 217.587 167.964 217.587 167.79C217.588 167.627 217.719 167.496 217.882 167.496C217.895 167.495 217.906 167.496 217.917 167.496C220.905 167.496 225.721 165.773 228.946 164.063C229.091 163.987 229.269 164.041 229.345 164.185C229.421 164.33 229.367 164.508 229.223 164.584C225.932 166.328 221.001 168.086 217.916 168.086Z" fill="#292929"/>
<path d="M165.867 182.648C167.227 183.128 173.869 183.129 179.231 180.087C180.111 184.969 183.391 199.533 183.391 199.533C187.953 194.572 194.274 188.73 197.156 186.249C200.036 183.768 204.438 181.368 208.759 181.528C213.08 181.688 215.32 181.448 215.32 181.448C215.32 181.448 211.88 187.53 213.64 204.414C215.401 221.299 215.961 223.54 215.961 223.54L210.039 222.98C210.039 222.98 211.24 219.219 207.639 214.898C204.037 210.576 202.997 207.855 202.517 204.654C198.676 208.576 188.433 219.459 179.871 219.539C171.308 219.618 168.267 211.937 167.067 202.334C165.867 192.731 165.867 182.648 165.867 182.648Z" fill="#40BDDE"/>
<path d="M231.807 219.434C229.407 220.154 219.082 223.22 214.36 222.9C209.639 222.579 204.758 220.258 200.916 221.219C197.075 222.179 190.487 227.021 190.954 228.941C191.314 230.422 193.074 229.621 193.074 229.621C193.714 230.982 194.995 230.261 194.995 230.261C195.635 231.622 198.596 230.822 200.357 229.301C202.117 227.781 204.277 226.98 206.999 227.941C209.719 228.901 213.96 230.261 218.921 230.502C223.883 230.742 235.567 230.196 235.567 230.196C235.567 230.196 237.328 223.275 231.807 219.434Z" fill="#FEFEFE"/>
<path d="M194.995 229.967C195.026 229.967 195.057 229.972 195.085 229.982C195.163 230.007 195.228 230.062 195.262 230.136C195.467 230.572 195.999 230.663 196.411 230.663C197.54 230.663 199.084 230.012 200.164 229.078C202.295 227.238 204.579 226.774 207.097 227.663C210.111 228.727 214.18 229.977 218.936 230.208C219.769 230.248 220.852 230.268 222.156 230.268C227.123 230.268 233.997 229.972 235.327 229.912C235.554 228.749 236.379 223.076 231.755 219.758C227.101 221.149 218.548 223.481 214.341 223.194C212.465 223.067 210.569 222.628 208.736 222.205C206.682 221.731 204.742 221.283 202.954 221.283C202.23 221.283 201.587 221.356 200.988 221.506C197.125 222.47 190.839 227.221 191.24 228.871C191.352 229.329 191.623 229.543 192.093 229.543C192.527 229.543 192.949 229.355 192.953 229.353C193.1 229.288 193.273 229.351 193.341 229.496C193.551 229.94 193.845 230.158 194.24 230.158C194.569 230.158 194.849 230.005 194.852 230.004C194.896 229.979 194.945 229.967 194.995 229.967ZM196.411 231.253C195.571 231.253 195.12 230.954 194.877 230.633C194.714 230.69 194.489 230.747 194.24 230.747C193.848 230.747 193.322 230.608 192.938 229.988C192.729 230.055 192.419 230.133 192.093 230.133C191.35 230.133 190.844 229.734 190.667 229.01C190.11 226.717 197.158 221.855 200.845 220.933C201.492 220.772 202.181 220.693 202.954 220.693C204.81 220.693 206.781 221.148 208.869 221.631C210.68 222.049 212.552 222.482 214.381 222.605C218.535 222.892 227.144 220.525 231.723 219.151C231.809 219.126 231.903 219.141 231.976 219.192C237.6 223.104 235.872 230.198 235.853 230.269C235.821 230.395 235.711 230.485 235.581 230.491C235.502 230.495 227.663 230.858 222.157 230.858C222.156 230.858 222.157 230.858 222.156 230.858C220.842 230.858 219.75 230.837 218.907 230.796C214.075 230.562 209.952 229.297 206.901 228.219C204.585 227.403 202.518 227.824 200.55 229.525C199.371 230.543 197.669 231.253 196.411 231.253Z" fill="#292929"/>
<path d="M245.489 216.738L246.049 210.016L247.89 216.258L245.489 216.738ZM268.056 213.777C264.534 204.335 261.494 194.092 258.613 189.45C255.732 184.809 252.291 180.488 245.889 179.847C241.248 179.527 237.087 179.367 237.087 179.367C235.566 183.369 230.685 202.734 233.246 218.979C232.125 218.979 231.326 219.619 231.326 219.619C233.886 221.7 235.326 225.46 234.686 230.502C245.809 231.382 257.573 229.622 261.413 228.661C265.255 227.701 271.577 223.22 268.056 213.777Z" fill="#40BDDE"/>
<path d="M161.571 159.228C161.416 159.228 161.287 159.107 161.277 158.951C161.267 158.789 161.39 158.649 161.553 158.639C162.102 158.604 162.764 158.542 163.485 158.474C165.903 158.245 168.913 157.963 170.712 158.426C170.87 158.467 170.964 158.628 170.924 158.785C170.883 158.943 170.723 159.038 170.564 158.998C168.863 158.558 165.912 158.837 163.54 159.061C162.812 159.129 162.144 159.193 161.59 159.227C161.583 159.228 161.577 159.228 161.571 159.228Z" fill="#292929"/>
<path d="M202.756 206.31C202.619 206.31 202.496 206.213 202.468 206.073C201.933 203.395 202.531 199.962 203.362 197.749C203.418 197.596 203.589 197.517 203.741 197.577C203.894 197.634 203.971 197.803 203.913 197.956C203.316 199.55 202.46 203.028 203.046 205.957C203.078 206.117 202.974 206.273 202.814 206.304C202.795 206.308 202.776 206.31 202.756 206.31Z" fill="#292929"/>
<path d="M231.503 219.699C231.373 219.699 231.254 219.612 231.218 219.48C231.177 219.323 231.271 219.161 231.428 219.12C234.016 218.434 250.23 215.253 255.947 214.763C256.107 214.749 256.252 214.869 256.266 215.032C256.28 215.194 256.16 215.337 255.998 215.351C250.305 215.839 234.157 219.007 231.579 219.69C231.553 219.696 231.528 219.699 231.503 219.699Z" fill="#292929"/>
<path d="M246.449 211.351C246.324 211.351 246.209 211.271 246.169 211.146C245.589 209.336 244.166 203.626 243.482 200.882L243.282 200.085C243.244 199.927 243.339 199.767 243.497 199.727C243.653 199.688 243.815 199.784 243.855 199.942L244.054 200.74C244.737 203.477 246.157 209.175 246.731 210.967C246.78 211.121 246.694 211.288 246.539 211.338C246.509 211.347 246.479 211.351 246.449 211.351Z" fill="#292929"/>
<path d="M194.995 230.556C194.986 230.556 194.977 230.556 194.968 230.555C194.806 230.541 194.686 230.397 194.701 230.235C194.798 229.164 199.107 225.568 202.996 224.457C203.154 224.41 203.316 224.503 203.36 224.659C203.405 224.816 203.315 224.979 203.158 225.024C199.245 226.142 195.351 229.595 195.288 230.288C195.275 230.441 195.146 230.556 194.995 230.556Z" fill="#292929"/>
<path d="M193.074 229.917C192.911 229.917 192.779 229.785 192.779 229.622C192.779 228.084 196.009 224.84 201.069 223.258C201.227 223.209 201.389 223.297 201.438 223.452C201.487 223.607 201.4 223.772 201.245 223.821C196.049 225.445 193.369 228.623 193.369 229.622C193.369 229.785 193.238 229.917 193.074 229.917Z" fill="#292929"/>
<path d="M213.957 229.392H188.686L178.517 199.691C177.63 197.101 174.664 194.981 171.926 194.981H128.771C126.035 194.981 124.52 197.101 125.407 199.691L135.883 230.286C137.029 233.257 137.163 235.702 140.141 235.702H213.957C215.699 235.702 217.112 234.289 217.112 232.546C217.112 230.803 215.699 229.392 213.957 229.392Z" fill="#FAAD3A"/>
<path d="M186.459 230.234H136.268C136.105 230.234 135.973 230.103 135.973 229.94C135.973 229.777 136.105 229.645 136.268 229.645H186.459C186.622 229.645 186.754 229.777 186.754 229.94C186.754 230.103 186.622 230.234 186.459 230.234Z" fill="#292929"/>
<path d="M153.674 210.419C152.931 210.419 152.317 210.713 151.898 211.271C151.292 212.076 151.168 213.309 151.556 214.652C152.256 217.077 154.401 219.05 156.337 219.05C157.079 219.05 157.692 218.755 158.111 218.198C158.717 217.391 158.841 216.159 158.453 214.817C157.754 212.392 155.61 210.419 153.674 210.419ZM156.337 219.639C154.157 219.639 151.758 217.476 150.99 214.815C150.549 213.293 150.708 211.872 151.427 210.917C151.954 210.215 152.752 209.829 153.674 209.829C155.855 209.829 158.253 211.994 159.019 214.653C159.46 216.175 159.301 217.596 158.582 218.552C158.055 219.253 157.258 219.639 156.337 219.639Z" fill="#292929"/>
</svg>
