<svg width="19" height="18" viewBox="0 0 19 18" fill="none" xmlns="http://www.w3.org/2000/svg">
<path d="M14.6447 3.21338C14.0617 3.21338 13.5891 3.68599 13.5891 4.26849C13.5891 4.8515 14.0617 5.32411 14.6447 5.32411C15.2272 5.32411 15.6998 4.8515 15.6998 4.26849C15.6998 3.68599 15.2272 3.21338 14.6447 3.21338Z" fill="white"/>
<path d="M9.95312 11.8392C8.38723 11.8392 7.11335 10.5654 7.11335 8.99999C7.11335 7.43411 8.38723 6.16025 9.95312 6.16025C11.5185 6.16025 12.7924 7.43411 12.7924 8.99999C12.7924 10.5654 11.5185 11.8392 9.95312 11.8392ZM9.95312 4.56689C7.50865 4.56689 5.52002 6.55553 5.52002 8.99999C5.52002 11.4439 7.50865 13.4326 9.95312 13.4326C12.3971 13.4326 14.3857 11.4439 14.3857 8.99999C14.3857 6.55553 12.3971 4.56689 9.95312 4.56689Z" fill="white"/>
<path d="M6.28608 1.69357C4.23843 1.69357 2.57283 3.35917 2.57283 5.40682V12.5932C2.57283 14.6408 4.23843 16.3064 6.28608 16.3064H13.4724C15.5201 16.3064 17.1862 14.6408 17.1862 12.5932V5.40682C17.1862 3.35917 15.5201 1.69357 13.4724 1.69357H6.28608ZM13.4724 18H6.28608C3.30439 18 0.879761 15.5744 0.879761 12.5932V5.40682C0.879761 2.42513 3.30439 0 6.28608 0H13.4724C16.4536 0 18.8792 2.42513 18.8792 5.40682V12.5932C18.8792 15.5744 16.4536 18 13.4724 18Z" fill="white"/>
</svg>
