<svg width="512" height="512" viewBox="0 0 512 512" fill="none" xmlns="http://www.w3.org/2000/svg">
<rect width="512" height="512" rx="40" fill="url(#paint0_linear_6_2)"/>
<g filter="url(#filter0_d_6_2)">
<path d="M421 175.346C421.007 170.816 419.828 166.365 417.582 162.445C415.336 158.525 412.104 155.277 408.214 153.031L269.22 69.609C265.214 67.2454 260.66 66 256.022 66C251.384 66 246.83 67.2454 242.824 69.609L103.624 153.031C99.7769 155.339 96.5904 158.62 94.3771 162.55C92.1638 166.481 91 170.927 91 175.45C91 179.974 92.1638 184.419 94.3771 188.35C96.5904 192.281 99.7769 195.561 103.624 197.87L143.218 221.228V279.831C143.242 284.411 144.431 288.908 146.67 292.889C148.909 296.871 152.124 300.202 156.004 302.564L243.649 353.659C247.562 355.85 251.961 357 256.434 357C260.907 357 265.307 355.85 269.22 353.659L356.865 302.564C360.745 300.202 363.96 296.871 366.199 292.889C368.438 288.908 369.627 284.411 369.651 279.831V220.602L395.222 205.378V262.104H421V175.346ZM344.079 279.623L256.022 330.927L168.996 279.831V236.661L242.824 281.083C246.843 283.405 251.393 284.627 256.022 284.627C260.651 284.627 265.201 283.405 269.22 281.083L343.873 236.035L344.079 279.623ZM256.022 258.559L116.822 175.137L256.022 91.5072L395.222 174.929L256.022 258.559Z" fill="#FFCD1F"/>
</g>
<g filter="url(#filter1_d_6_2)">
<path d="M99.648 430.384C96.32 430.384 93.12 429.851 90.048 428.784C87.0187 427.675 84.672 426.267 83.008 424.56L84.864 420.912C86.4427 422.448 88.5547 423.749 91.2 424.816C93.888 425.84 96.704 426.352 99.648 426.352C102.464 426.352 104.747 426.011 106.496 425.328C108.288 424.603 109.589 423.643 110.4 422.448C111.253 421.253 111.68 419.931 111.68 418.48C111.68 416.731 111.168 415.323 110.144 414.256C109.163 413.189 107.861 412.357 106.24 411.76C104.619 411.12 102.827 410.565 100.864 410.096C98.9013 409.627 96.9387 409.136 94.976 408.624C93.0133 408.069 91.2 407.344 89.536 406.448C87.9147 405.552 86.592 404.379 85.568 402.928C84.5867 401.435 84.096 399.493 84.096 397.104C84.096 394.885 84.672 392.859 85.824 391.024C87.0187 389.147 88.832 387.653 91.264 386.544C93.696 385.392 96.8107 384.816 100.608 384.816C103.125 384.816 105.621 385.179 108.096 385.904C110.571 386.587 112.704 387.547 114.496 388.784L112.896 392.56C110.976 391.28 108.928 390.341 106.752 389.744C104.619 389.147 102.549 388.848 100.544 388.848C97.856 388.848 95.6373 389.211 93.888 389.936C92.1387 390.661 90.8373 391.643 89.984 392.88C89.1733 394.075 88.768 395.44 88.768 396.976C88.768 398.725 89.2587 400.133 90.24 401.2C91.264 402.267 92.5867 403.099 94.208 403.696C95.872 404.293 97.6853 404.827 99.648 405.296C101.611 405.765 103.552 406.277 105.472 406.832C107.435 407.387 109.227 408.112 110.848 409.008C112.512 409.861 113.835 411.013 114.816 412.464C115.84 413.915 116.352 415.813 116.352 418.16C116.352 420.336 115.755 422.363 114.56 424.24C113.365 426.075 111.531 427.568 109.056 428.72C106.624 429.829 103.488 430.384 99.648 430.384ZM136.335 430.32C133.178 430.32 130.746 429.467 129.039 427.76C127.332 426.053 126.479 423.643 126.479 420.528V388.976H131.023V420.272C131.023 422.235 131.514 423.749 132.495 424.816C133.519 425.883 134.97 426.416 136.847 426.416C138.852 426.416 140.516 425.84 141.839 424.688L143.439 427.952C142.543 428.763 141.455 429.36 140.175 429.744C138.938 430.128 137.658 430.32 136.335 430.32ZM120.463 400.176V396.4H141.263V400.176H120.463ZM165.599 430.32C162.74 430.32 160.244 429.787 158.111 428.72C155.978 427.653 154.314 426.053 153.119 423.92C151.967 421.787 151.391 419.12 151.391 415.92V396.4H155.935V415.408C155.935 418.992 156.81 421.701 158.559 423.536C160.351 425.328 162.847 426.224 166.047 426.224C168.394 426.224 170.42 425.755 172.127 424.816C173.876 423.835 175.199 422.427 176.095 420.592C177.034 418.757 177.503 416.56 177.503 414V396.4H182.047V430H177.695V420.784L178.399 422.448C177.332 424.923 175.668 426.864 173.407 428.272C171.188 429.637 168.586 430.32 165.599 430.32ZM208.087 430.32C204.887 430.32 202.007 429.595 199.447 428.144C196.93 426.693 194.946 424.688 193.495 422.128C192.044 419.525 191.319 416.539 191.319 413.168C191.319 409.755 192.044 406.768 193.495 404.208C194.946 401.648 196.93 399.664 199.447 398.256C202.007 396.805 204.887 396.08 208.087 396.08C211.031 396.08 213.655 396.741 215.959 398.064C218.306 399.387 220.162 401.328 221.527 403.888C222.935 406.405 223.639 409.499 223.639 413.168C223.639 416.795 222.956 419.888 221.591 422.448C220.226 425.008 218.37 426.971 216.023 428.336C213.719 429.659 211.074 430.32 208.087 430.32ZM208.407 426.288C210.796 426.288 212.93 425.755 214.807 424.688C216.727 423.579 218.22 422.043 219.287 420.08C220.396 418.075 220.951 415.771 220.951 413.168C220.951 410.523 220.396 408.219 219.287 406.256C218.22 404.293 216.727 402.779 214.807 401.712C212.93 400.603 210.796 400.048 208.407 400.048C206.06 400.048 203.948 400.603 202.071 401.712C200.194 402.779 198.7 404.293 197.591 406.256C196.482 408.219 195.927 410.523 195.927 413.168C195.927 415.771 196.482 418.075 197.591 420.08C198.7 422.043 200.194 423.579 202.071 424.688C203.948 425.755 206.06 426.288 208.407 426.288ZM221.079 430V419.888L221.527 413.104L220.887 406.32V382.512H225.431V430H221.079ZM238.342 442.736C236.763 442.736 235.249 442.48 233.798 441.968C232.39 441.456 231.174 440.688 230.15 439.664L232.262 436.272C233.115 437.083 234.033 437.701 235.014 438.128C236.038 438.597 237.169 438.832 238.406 438.832C239.899 438.832 241.179 438.405 242.246 437.552C243.355 436.741 244.401 435.291 245.382 433.2L247.558 428.272L248.07 427.568L261.894 396.4H266.374L249.542 434.032C248.603 436.208 247.558 437.936 246.406 439.216C245.297 440.496 244.081 441.392 242.758 441.904C241.435 442.459 239.963 442.736 238.342 442.736ZM247.302 430.96L231.814 396.4H236.55L250.246 427.248L247.302 430.96ZM272.454 430V385.2H292.038C296.902 385.2 301.168 386.139 304.838 388.016C308.507 389.893 311.366 392.496 313.414 395.824C315.462 399.152 316.486 403.077 316.486 407.6C316.486 412.08 315.462 416.005 313.414 419.376C311.366 422.704 308.507 425.307 304.838 427.184C301.168 429.061 296.902 430 292.038 430H272.454ZM280.774 422.96H291.654C295.024 422.96 297.926 422.32 300.358 421.04C302.832 419.76 304.731 417.968 306.054 415.664C307.419 413.36 308.102 410.672 308.102 407.6C308.102 404.485 307.419 401.797 306.054 399.536C304.731 397.232 302.832 395.44 300.358 394.16C297.926 392.88 295.024 392.24 291.654 392.24H280.774V422.96ZM345.617 430V423.088L345.169 421.616V409.52C345.169 407.173 344.465 405.36 343.057 404.08C341.649 402.757 339.515 402.096 336.657 402.096C334.737 402.096 332.838 402.395 330.961 402.992C329.126 403.589 327.569 404.421 326.289 405.488L323.153 399.664C324.987 398.256 327.163 397.211 329.681 396.528C332.241 395.803 334.886 395.44 337.617 395.44C342.566 395.44 346.385 396.635 349.073 399.024C351.803 401.371 353.169 405.019 353.169 409.968V430H345.617ZM334.865 430.448C332.305 430.448 330.065 430.021 328.145 429.168C326.225 428.272 324.731 427.056 323.665 425.52C322.641 423.941 322.129 422.171 322.129 420.208C322.129 418.288 322.577 416.56 323.473 415.024C324.411 413.488 325.926 412.272 328.017 411.376C330.107 410.48 332.881 410.032 336.337 410.032H346.257V415.344H336.913C334.182 415.344 332.347 415.792 331.409 416.688C330.47 417.541 330.001 418.608 330.001 419.888C330.001 421.339 330.577 422.491 331.729 423.344C332.881 424.197 334.481 424.624 336.529 424.624C338.491 424.624 340.241 424.176 341.777 423.28C343.355 422.384 344.486 421.061 345.169 419.312L346.513 424.112C345.745 426.117 344.358 427.675 342.353 428.784C340.39 429.893 337.894 430.448 334.865 430.448ZM373.996 430.448C371.137 430.448 368.385 430.085 365.74 429.36C363.137 428.592 361.068 427.675 359.532 426.608L362.604 420.528C364.14 421.509 365.974 422.32 368.108 422.96C370.241 423.6 372.374 423.92 374.508 423.92C377.025 423.92 378.838 423.579 379.948 422.896C381.1 422.213 381.676 421.296 381.676 420.144C381.676 419.205 381.292 418.501 380.524 418.032C379.756 417.52 378.753 417.136 377.516 416.88C376.278 416.624 374.892 416.389 373.356 416.176C371.862 415.963 370.348 415.685 368.812 415.344C367.318 414.96 365.953 414.427 364.716 413.744C363.478 413.019 362.476 412.059 361.708 410.864C360.94 409.669 360.556 408.091 360.556 406.128C360.556 403.952 361.174 402.075 362.411 400.496C363.649 398.875 365.377 397.637 367.595 396.784C369.857 395.888 372.524 395.44 375.596 395.44C377.9 395.44 380.225 395.696 382.572 396.208C384.918 396.72 386.86 397.445 388.396 398.384L385.324 404.464C383.702 403.483 382.06 402.821 380.396 402.48C378.774 402.096 377.153 401.904 375.532 401.904C373.1 401.904 371.286 402.267 370.092 402.992C368.94 403.717 368.364 404.635 368.364 405.744C368.364 406.768 368.748 407.536 369.516 408.048C370.284 408.56 371.286 408.965 372.524 409.264C373.761 409.563 375.126 409.819 376.62 410.032C378.156 410.203 379.67 410.48 381.164 410.864C382.657 411.248 384.022 411.781 385.26 412.464C386.54 413.104 387.564 414.021 388.332 415.216C389.1 416.411 389.484 417.968 389.484 419.888C389.484 422.021 388.844 423.877 387.564 425.456C386.326 427.035 384.556 428.272 382.252 429.168C379.948 430.021 377.196 430.448 373.996 430.448ZM415.765 395.44C418.496 395.44 420.928 395.973 423.061 397.04C425.237 398.107 426.944 399.749 428.181 401.968C429.418 404.144 430.037 406.96 430.037 410.416V430H422.037V411.44C422.037 408.411 421.312 406.149 419.861 404.656C418.453 403.163 416.469 402.416 413.909 402.416C412.032 402.416 410.368 402.8 408.917 403.568C407.466 404.336 406.336 405.488 405.525 407.024C404.757 408.517 404.373 410.416 404.373 412.72V430H396.373V382.512H404.373V405.04L402.645 402.224C403.84 400.048 405.568 398.384 407.829 397.232C410.133 396.037 412.778 395.44 415.765 395.44Z" fill="#FFCD1F"/>
</g>
<defs>
<filter id="filter0_d_6_2" x="81" y="62" width="350" height="311" filterUnits="userSpaceOnUse" color-interpolation-filters="sRGB">
<feFlood flood-opacity="0" result="BackgroundImageFix"/>
<feColorMatrix in="SourceAlpha" type="matrix" values="0 0 0 0 0 0 0 0 0 0 0 0 0 0 0 0 0 0 127 0" result="hardAlpha"/>
<feOffset dy="6"/>
<feGaussianBlur stdDeviation="5"/>
<feComposite in2="hardAlpha" operator="out"/>
<feColorMatrix type="matrix" values="0 0 0 0 0 0 0 0 0 0 0 0 0 0 0 0 0 0 0.25 0"/>
<feBlend mode="normal" in2="BackgroundImageFix" result="effect1_dropShadow_6_2"/>
<feBlend mode="normal" in="SourceGraphic" in2="effect1_dropShadow_6_2" result="shape"/>
</filter>
<filter id="filter1_d_6_2" x="73.008" y="378.512" width="367.029" height="80.224" filterUnits="userSpaceOnUse" color-interpolation-filters="sRGB">
<feFlood flood-opacity="0" result="BackgroundImageFix"/>
<feColorMatrix in="SourceAlpha" type="matrix" values="0 0 0 0 0 0 0 0 0 0 0 0 0 0 0 0 0 0 127 0" result="hardAlpha"/>
<feOffset dy="6"/>
<feGaussianBlur stdDeviation="5"/>
<feComposite in2="hardAlpha" operator="out"/>
<feColorMatrix type="matrix" values="0 0 0 0 0 0 0 0 0 0 0 0 0 0 0 0 0 0 0.25 0"/>
<feBlend mode="normal" in2="BackgroundImageFix" result="effect1_dropShadow_6_2"/>
<feBlend mode="normal" in="SourceGraphic" in2="effect1_dropShadow_6_2" result="shape"/>
</filter>
<linearGradient id="paint0_linear_6_2" x1="494" y1="81" x2="-100" y2="631" gradientUnits="userSpaceOnUse">
<stop offset="0.217168" stop-color="#0A092D"/>
<stop offset="1" stop-color="#2E3856"/>
</linearGradient>
</defs>
</svg>
