<svg width="191" height="38" viewBox="0 0 191 38" fill="none" xmlns="http://www.w3.org/2000/svg">
<g id="Group">
<path id="Vector" d="M12.5347 36.9319H5.3774V19.0828H0.5V13.2736H5.3774V9.14059C5.3774 4.24236 7.53241 0.72876 14.6741 0.72876C16.1837 0.72876 18.5573 1.03067 18.5573 1.03067V6.42861H16.064C13.529 6.42861 12.5347 7.199 12.5347 9.33319V13.2736H18.4584L17.9327 19.0828H12.5347V36.9319ZM28.9628 12.8104C28.8587 12.8104 28.7494 12.8156 28.6453 12.8156C22.0085 12.8156 18.9685 17.8075 18.9685 24.8971C18.9685 33.8243 22.909 37.4004 28.6973 37.4004C32.0079 37.4004 34.1837 36.0053 35.5059 33.4079V36.9371H42.3145V13.2788H35.5059V16.9174C34.4284 14.575 32.1901 12.8416 28.9628 12.8104ZM30.6962 18.4009C33.4862 18.4009 35.1571 20.3477 35.1571 23.6531L35.1623 27.0313C35.1623 29.2592 33.7777 31.8671 30.6962 31.8671C25.9541 31.8671 26.079 26.745 26.079 25.0377C26.079 19.3014 28.6036 18.4009 30.6962 18.4009ZM45.0681 25.1106C45.0681 22.2372 44.9328 12.8312 57.1861 12.8312C62.1052 12.8312 64.1613 14.398 64.1613 14.398L62.5112 19.52C62.5112 19.52 60.4603 18.3905 57.7847 18.3905C54.3596 18.3905 52.1786 20.3737 52.1786 23.8665L52.1838 26.3703C52.1838 29.7277 54.292 31.966 57.7951 31.966C60.2312 31.966 62.4747 30.826 62.4747 30.826L64.1196 35.8388C64.1196 35.8388 62.2405 37.4108 57.2226 37.4108C45.547 37.4056 45.0681 28.9677 45.0681 25.1106ZM104.086 12.8156C110.723 12.8156 113.81 17.8075 113.81 24.8971C113.81 33.8243 109.869 37.4004 104.081 37.4004C100.77 37.4004 98.3239 36.0053 97.0017 33.4079V36.9371L90.2764 36.9319V1.4471L97.413 0.82246V16.5946C98.4436 13.8358 101.827 12.8156 104.086 12.8156ZM102.082 18.4009C99.2921 18.4009 97.413 20.3477 97.413 23.6531L97.4078 27.0313C97.4025 29.2592 98.7091 31.8671 102.082 31.8671C106.824 31.8671 106.699 26.745 106.699 25.0377C106.699 19.3014 104.175 18.4009 102.082 18.4009ZM76.5448 12.8364C69.0178 12.8364 65.041 16.9434 65.041 24.2361V25.5895C65.041 35.058 70.6211 37.4941 77.2787 37.4941C83.749 37.4941 86.6744 35.6826 86.6744 35.6826L85.3366 30.8625C85.3366 30.8625 81.8906 32.3304 78.1324 32.3304C74.2336 32.3304 72.5575 31.3362 72.1254 27.5883H87.2417V23.7207C87.2469 15.819 82.7808 12.8364 76.5448 12.8364ZM76.727 17.6617C79.3348 17.6617 81.0214 19.2598 80.9277 22.966H72.1411C72.292 19.0672 74.1139 17.6617 76.727 17.6617ZM128.041 12.8052C120.311 12.8052 116.241 17.162 116.241 24.97C116.241 35.6826 123.257 37.4108 128.057 37.4108C135.084 37.4108 139.758 33.6265 139.758 25.0689C139.753 16.1626 134.501 12.8052 128.041 12.8052ZM127.942 18.4217C131.341 18.4217 132.69 20.9671 132.69 23.8613V26.3494C132.69 29.8578 130.805 31.8879 127.932 31.8879C125.241 31.8879 123.351 29.988 123.351 26.3494V23.8613C123.351 19.9781 125.6 18.4217 127.942 18.4217ZM153.974 12.8052C146.244 12.8052 142.174 17.162 142.174 24.97C142.174 35.6826 149.19 37.4108 153.99 37.4108C161.017 37.4108 165.691 33.6265 165.691 25.0689C165.686 16.1626 160.434 12.8052 153.974 12.8052ZM153.88 18.4217C157.28 18.4217 158.628 20.9671 158.628 23.8613V26.3494C158.628 29.8578 156.743 31.8879 153.87 31.8879C151.179 31.8879 149.289 29.988 149.289 26.3494V23.8613C149.289 19.9781 151.538 18.4217 153.88 18.4217ZM168.388 36.9319V1.4471L175.545 0.82246V24.6056L182.65 13.2736H190.214L182.807 25.0117L190.5 36.9319H182.916L175.545 25.3604V36.9319H168.388Z" fill="#1877F2"/>
</g>
</svg>
