<svg width="17" height="18" viewBox="0 0 17 18" fill="none" xmlns="http://www.w3.org/2000/svg">
<path d="M16.0881 7.28289C15.941 7.29686 15.7934 7.30434 15.6452 7.30534C14.0241 7.30534 12.5128 6.48832 11.6249 5.1321V12.5312C11.6249 15.5519 9.17586 18 6.15616 18C3.13546 18 0.687378 15.5519 0.687378 12.5312C0.687378 9.51101 3.13546 7.06293 6.15616 7.06293C6.26988 7.06293 6.38161 7.07291 6.49384 7.07989V9.77487C6.38161 9.7614 6.27138 9.74095 6.15616 9.74095C4.61438 9.74095 3.3649 10.9909 3.3649 12.5317C3.3649 14.0735 4.61438 15.323 6.15616 15.323C7.69793 15.323 9.05914 14.1084 9.05914 12.5666L9.08657 0H11.6648C11.9078 2.31191 13.7717 4.11805 16.0906 4.28764V7.28289" fill="white"/>
</svg>
