<svg width="23" height="18" viewBox="0 0 23 18" fill="none" xmlns="http://www.w3.org/2000/svg">
<path d="M22.6592 2.15762C21.9643 2.47202 21.1966 2.66229 20.4472 2.78795C20.8028 2.72842 21.3253 2.08436 21.5349 1.82389C21.8544 1.42707 22.1195 0.974281 22.2685 0.485381C22.2879 0.447225 22.3026 0.399404 22.264 0.370406C22.2161 0.351583 22.1851 0.361255 22.1469 0.380079C21.31 0.82828 20.4452 1.15336 19.5244 1.38382C19.4481 1.40265 19.3911 1.38382 19.3433 1.33549C19.2675 1.24951 19.1952 1.16812 19.1143 1.10147C18.7272 0.772318 18.312 0.51387 17.844 0.323092C17.2294 0.0727911 16.5579 -0.0335303 15.896 0.00920395C15.2514 0.0514295 14.6191 0.232542 14.0478 0.531173C13.4749 0.830313 12.9636 1.24697 12.5561 1.7491C12.1354 2.26903 11.8251 2.88207 11.6658 3.53275C11.5132 4.16053 11.5254 4.7812 11.619 5.4156C11.6333 5.52091 11.6236 5.53515 11.5285 5.52091C7.92708 4.9847 4.94179 3.69656 2.51814 0.934605C2.41283 0.814542 2.35587 0.814537 2.26989 0.943757C1.20916 2.53357 1.72348 5.08695 3.04825 6.34202C3.22529 6.5099 3.40643 6.67677 3.60229 6.82939C3.53056 6.84414 2.6494 6.74901 1.8634 6.34202C1.7586 6.27537 1.70519 6.31404 1.69603 6.43308C1.68637 6.60504 1.7011 6.76326 1.72451 6.94946C1.928 8.56064 3.04419 10.0507 4.57245 10.6327C4.75357 10.7091 4.95452 10.7757 5.14988 10.8093C4.8019 10.8856 4.44324 10.94 3.44458 10.8617C3.32045 10.8383 3.27313 10.9003 3.32044 11.0199C4.07134 13.0645 5.69014 13.6735 6.90349 14.0199C7.06578 14.0484 7.2286 14.0484 7.3914 14.0866C7.38122 14.1013 7.37154 14.1013 7.36187 14.1156C6.95996 14.7286 5.56501 15.185 4.91535 15.4119C3.73405 15.825 2.44745 16.0107 1.199 15.8875C0.999571 15.858 0.957348 15.8606 0.903422 15.8875C0.848478 15.9216 0.89579 15.9694 0.9604 16.0213C1.21375 16.1887 1.47167 16.3368 1.73469 16.4802C2.52731 16.9004 3.35401 17.2352 4.21887 17.4738C8.68308 18.7065 13.7115 17.8004 17.0636 14.4702C19.6958 11.8547 20.6187 8.24776 20.6187 4.63671C20.6187 4.49528 20.7855 4.41744 20.8842 4.34266C21.5695 3.82832 22.122 3.21224 22.6328 2.52493C22.7478 2.37027 22.7488 2.23291 22.7488 2.17644C22.7488 2.16677 22.7488 2.15762 22.7488 2.15762C22.7488 2.09962 22.7478 2.11743 22.6592 2.15762Z" fill="white"/>
</svg>
