<svg width="19" height="18" viewBox="0 0 19 18" fill="none" xmlns="http://www.w3.org/2000/svg">
<path d="M5.17094 14.8997L5.47568 15.0813C6.59441 15.7478 7.86731 16.1003 9.15596 16.1003C13.1318 16.1003 16.3659 12.8662 16.3659 8.89036C16.3659 4.91501 13.1318 1.6804 9.15596 1.6804C5.18112 1.6804 1.946 4.91501 1.946 8.89036C1.946 10.2029 2.31075 11.4957 3.00112 12.6286L3.18784 12.9354L2.46744 15.6241L5.17094 14.8997ZM0.0905762 18L1.38077 13.1857C0.650204 11.867 0.26611 10.3902 0.26611 8.89036C0.26611 3.98858 4.25367 0 9.15596 0C14.0583 0 18.0468 3.98858 18.0468 8.89036C18.0468 13.7927 14.0583 17.7812 9.15596 17.7812C7.68467 17.7812 6.23116 17.4093 4.93029 16.7042L0.0905762 18Z" fill="white"/>
<path fill-rule="evenodd" clip-rule="evenodd" d="M12.463 10.1271C12.0967 9.90788 11.621 9.66368 11.1896 9.8397C10.8594 9.97554 10.6483 10.4934 10.4336 10.7575C10.3237 10.8933 10.1925 10.9142 10.0236 10.8465C8.78222 10.3515 7.83087 9.52275 7.14559 8.38112C7.0296 8.20357 7.05043 8.06367 7.19034 7.89934C7.3974 7.65565 7.65737 7.37889 7.71334 7.05024C7.7693 6.7221 7.61517 6.3385 7.47933 6.04546C7.30585 5.67204 7.11201 5.13939 6.73758 4.92775C6.39366 4.73341 5.94036 4.84227 5.6341 5.09156C5.105 5.52298 4.84959 6.19759 4.85722 6.8671C4.85977 7.05737 4.88317 7.24713 4.92743 7.43028C5.03427 7.87136 5.23777 8.28395 5.46772 8.67518C5.6407 8.97076 5.82894 9.2577 6.03193 9.53344C6.69585 10.4355 7.52206 11.2194 8.47851 11.8055C8.95673 12.098 9.47105 12.355 10.0042 12.531C10.602 12.7284 11.1347 12.9339 11.7803 12.8113C12.4559 12.6831 13.1229 12.2649 13.391 11.6137C13.4703 11.4204 13.51 11.2057 13.4657 11.0022C13.3737 10.5809 12.8039 10.3306 12.463 10.1271Z" fill="white"/>
</svg>
